<?xml version="1.0" encoding="UTF-8" standalone="no"?>
<svg
   xmlns:dc="http://purl.org/dc/elements/1.1/"
   xmlns:cc="http://creativecommons.org/ns#"
   xmlns:rdf="http://www.w3.org/1999/02/22-rdf-syntax-ns#"
   xmlns:svg="http://www.w3.org/2000/svg"
   xmlns="http://www.w3.org/2000/svg"
   xmlns:sodipodi="http://sodipodi.sourceforge.net/DTD/sodipodi-0.dtd"
   xmlns:inkscape="http://www.inkscape.org/namespaces/inkscape"
   width="250"
   height="52.109024"
   id="svg2"
   sodipodi:version="0.32"
   inkscape:version="0.46"
   sodipodi:docname="logo_coppetex-color.svg"
   inkscape:output_extension="org.inkscape.output.svg.inkscape"
   inkscape:export-filename="/home/helano/devel/coppetex_html/coppetex_html/htdocs/images/logo_coppetex.png"
   inkscape:export-xdpi="90"
   inkscape:export-ydpi="90"
   version="1.0">
  <metadata
     id="metadata31">
    <rdf:RDF>
      <cc:Work
         rdf:about="">
        <dc:format>image/svg+xml</dc:format>
        <dc:type
           rdf:resource="http://purl.org/dc/dcmitype/StillImage" />
      </cc:Work>
    </rdf:RDF>
  </metadata>
  <sodipodi:namedview
     inkscape:window-height="851"
     inkscape:window-width="1440"
     inkscape:pageshadow="2"
     inkscape:pageopacity="0.0"
     guidetolerance="10.0"
     gridtolerance="10.0"
     objecttolerance="10.0"
     borderopacity="1.0"
     bordercolor="#666666"
     pagecolor="#ffffff"
     id="base"
     showgrid="false"
     inkscape:zoom="3.7872639"
     inkscape:cx="124.85"
     inkscape:cy="25.904512"
     inkscape:window-x="0"
     inkscape:window-y="0"
     inkscape:current-layer="svg2" />
  <defs
     id="defs4">
    <inkscape:perspective
       sodipodi:type="inkscape:persp3d"
       inkscape:vp_x="0 : 11.344 : 1"
       inkscape:vp_y="0 : 1000 : 0"
       inkscape:vp_z="109.988 : 11.344 : 1"
       inkscape:persp3d-origin="54.993999 : 7.5626666 : 1"
       id="perspective33" />
    <marker
       id="ArrowEnd"
       viewBox="0 0 10 10"
       refX="0"
       refY="5"
       markerUnits="strokeWidth"
       markerWidth="4"
       markerHeight="3"
       orient="auto">
      <path
         d="M 0,0 L 10,5 L 0,10 L 0,0 z"
         id="path7" />
    </marker>
    <marker
       id="ArrowStart"
       viewBox="0 0 10 10"
       refX="10"
       refY="5"
       markerUnits="strokeWidth"
       markerWidth="4"
       markerHeight="3"
       orient="auto">
      <path
         d="M 10,0 L 0,5 L 10,10 L 10,0 z"
         id="path10" />
    </marker>
  </defs>
  <path
     id="path14"
     d="M 34.160165,1.4175758 C 34.160165,0.40670377 34.103961,0.35469398 33.729267,0.35469398 C 33.492741,0.35469398 33.42717,0.40670377 32.998615,1.0797896 L 30.436648,5.7891799 C 27.591318,2.3467014 24.106668,0.34556395 19.633764,0.34556395 C 9.6997009,0.34556395 0.68832106,8.8169618 0.68832106,20.370623 C 0.68832106,32.028488 9.7067498,40.447807 19.725095,40.447807 C 28.626409,40.447807 34.169532,32.871553 34.169532,26.408056 C 34.169532,25.850545 34.169532,25.619382 33.647303,25.619382 C 33.190646,25.619382 33.190646,25.789354 33.125073,26.292474 C 32.668416,34.215471 26.851299,39.085758 20.565836,39.085758 C 14.63863,39.085758 5.1518815,35.031341 5.1518815,20.370623 C 5.1518815,5.6577572 14.811949,1.7098567 20.44638,1.7098567 C 27.015227,1.7098567 31.790228,7.2237275 32.897916,15.058407 C 33.007982,15.7315 33.007982,15.847149 33.52787,15.847149 C 34.169532,15.847149 34.169532,15.740633 34.169532,14.732105 L 34.160165,1.4175758 z"
     style="fill:#3b6989;fill-opacity:1;fill-rule:evenodd;stroke:#3b6989;stroke-width:0.6911279;stroke-linejoin:round;stroke-miterlimit:4;stroke-dasharray:none;stroke-opacity:1"
     sodipodi:nodetypes="csccssssscssscscc" />
  <path
     id="path16"
     d="M 68.353292,25.168387 C 68.353292,16.828413 61.465957,9.8708385 52.904209,9.8708385 C 44.286257,9.8708385 37.452784,16.821637 37.452784,25.168387 C 37.452784,33.623967 44.450185,40.23704 52.904209,40.23704 C 61.346524,40.23704 68.353292,33.633032 68.353292,25.168387 z M 52.894842,38.872725 C 48.768529,38.872725 42.356586,35.668172 42.356586,24.574617 C 42.356586,13.995533 48.988661,11.23513 52.894842,11.23513 C 56.845517,11.23513 63.433099,14.049902 63.433099,24.574617 C 63.433099,35.668172 57.028179,38.872725 52.894842,38.872725"
     style="fill:#3b6989;fill-opacity:1;fill-rule:evenodd;stroke:#3b6989;stroke-width:0.6911279;stroke-linejoin:round;stroke-miterlimit:4;stroke-dasharray:none;stroke-opacity:1" />
  <path
     id="path18"
     d="M 78.455255,26.408056 L 86.248882,26.408056 C 92.065998,26.408056 96.960438,22.892951 96.960438,18.652765 C 96.960438,14.634586 92.532024,10.781847 85.846087,10.781847 L 70.076171,10.781847 L 70.076171,12.137142 C 73.963617,12.137142 74.246979,12.474798 74.246979,14.775118 L 74.246979,35.55259 C 74.246979,37.855155 73.963617,38.190568 70.076171,38.190568 L 70.076171,39.545817 C 71.757608,39.491426 75.07833,39.387177 76.359314,39.387177 C 77.640298,39.387177 80.897789,39.491426 82.644797,39.545817 L 82.644797,38.190568 C 78.747985,38.190568 78.464623,37.855155 78.464623,35.543525 L 78.455255,26.408056 z M 78.235123,25.052806 L 78.235123,14.537204 C 78.235123,12.313937 78.527852,12.146139 80.586325,12.146139 L 84.6377,12.146139 C 92.040238,12.146139 92.040238,16.377329 92.040238,18.600616 C 92.040238,20.769536 92.040238,25.052806 84.6377,25.052806 L 78.235123,25.052806 z"
     style="fill:#3b6989;fill-opacity:1;fill-rule:evenodd;stroke:#3b6989;stroke-width:0.6911279;stroke-linejoin:round;stroke-miterlimit:4;stroke-dasharray:none;stroke-opacity:1" />
  <path
     id="path20"
     d="M 107.29892,26.408056 L 115.09255,26.408056 C 120.90966,26.408056 125.8041,22.892951 125.8041,18.652765 C 125.8041,14.634586 121.37804,10.781847 114.68975,10.781847 L 98.919835,10.781847 L 98.919835,12.137142 C 102.80729,12.137142 103.09065,12.474798 103.09065,14.775118 L 103.09065,35.55259 C 103.09065,37.855155 102.80729,38.190568 98.919835,38.190568 L 98.919835,39.545817 C 100.60362,39.491426 103.92434,39.387177 105.20299,39.387177 C 106.48397,39.387177 109.74146,39.491426 111.48847,39.545817 L 111.48847,38.190568 C 107.59165,38.190568 107.30829,37.855155 107.30829,35.543525 L 107.29892,26.408056 z M 107.07879,25.052806 L 107.07879,14.537204 C 107.07879,12.313937 107.37153,12.146139 109.42999,12.146139 L 113.48371,12.146139 C 120.88391,12.146139 120.88391,16.377329 120.88391,18.600616 C 120.88391,20.769536 120.88391,25.052806 113.48371,25.052806 L 107.07879,25.052806 z"
     style="fill:#3b6989;fill-opacity:1;fill-rule:evenodd;stroke:#3b6989;stroke-width:0.6911279;stroke-linejoin:round;stroke-miterlimit:4;stroke-dasharray:none;stroke-opacity:1" />
  <path
     id="path22"
     d="M 153.56044,28.656229 L 152.10616,28.656229 C 151.12025,35.482335 149.71983,38.190568 142.26343,38.190568 L 135.97092,38.190568 C 133.94054,38.190568 133.64782,38.022861 133.64782,35.756557 L 133.64782,25.274903 L 137.74603,25.274903 C 142.07141,25.274903 142.77629,26.408056 142.77629,30.224511 L 144.17671,30.224511 L 144.17671,19.051702 L 142.77629,19.051702 C 142.77629,22.79559 142.08076,23.910589 137.74603,23.910589 L 133.64782,23.910589 L 133.64782,14.747879 C 133.64782,12.526946 133.93119,12.359308 135.97092,12.359308 L 141.90747,12.359308 C 148.66834,12.359308 150.17649,14.296952 150.82752,20.334384 L 152.2818,20.334384 L 151.18349,10.845348 L 125.36007,10.845348 L 125.36007,12.350175 C 129.12809,12.350175 129.41145,12.68561 129.41145,14.979019 L 129.41145,35.543525 C 129.41145,37.837025 129.13745,38.172437 125.36007,38.172437 L 125.36007,39.527687 L 151.879,39.527687 L 152.03596,39.492478 L 153.56044,28.656229 z"
     style="fill:#3b6989;fill-opacity:1;fill-rule:evenodd;stroke:#3b6989;stroke-width:0.6911279;stroke-linejoin:round;stroke-miterlimit:4;stroke-dasharray:none;stroke-opacity:1" />
  <path
     id="path24"
     d="M 187.06039,1.3540855 L 153.56981,1.3540855 L 152.59092,13.766615 L 153.63538,13.766615 C 154.38476,4.4702593 155.20909,2.8430083 164.1994,2.8430083 C 165.24386,2.8430083 166.93466,2.8430083 167.40303,2.8430083 C 168.50837,3.0108051 168.50837,3.692872 168.50837,4.9846874 L 168.50837,35.53446 C 168.50837,37.562801 168.33508,38.181503 163.45001,38.181503 L 161.8037,38.181503 L 161.8037,39.536752 C 164.5858,39.484627 167.485,39.430236 170.33032,39.430236 C 173.16629,39.430236 176.07484,39.484627 178.8546,39.536752 L 178.8546,38.181503 L 177.23639,38.181503 C 172.42392,38.181503 172.25062,37.562801 172.25062,35.53446 L 172.25062,4.9846874 C 172.25062,3.7450197 172.25062,3.0719269 173.29274,2.8430083 C 173.75173,2.8430083 175.43318,2.8430083 176.47763,2.8430083 C 185.35085,2.8430083 186.21967,4.4611263 186.96906,13.766615 L 188.01117,13.766615 L 187.06039,1.3540855 z"
     style="fill:#3b6989;fill-opacity:1;fill-rule:evenodd;stroke:#3b6989;stroke-width:0.6911279;stroke-linejoin:round;stroke-miterlimit:4;stroke-dasharray:none;stroke-opacity:1" />
  <path
     id="path26"
     d="M 216.16003,37.580932 L 215.11792,37.580932 C 213.8463,45.902799 213.09457,50.426342 202.89588,50.426342 L 194.84464,50.426342 C 192.53092,50.426342 192.42084,50.143053 192.42084,48.212162 L 192.42084,32.524809 L 197.89137,32.524809 C 203.36191,32.524809 203.88412,34.464765 203.88412,39.201339 L 204.81618,39.201339 L 204.81618,24.601811 L 203.88412,24.601811 C 203.88412,29.259065 203.36191,31.16276 197.89137,31.16276 L 192.42084,31.16276 L 192.42084,17.254455 C 192.42084,15.359826 192.53092,15.076538 194.84464,15.076538 L 202.77644,15.076538 C 211.75035,15.076538 212.79246,18.52814 213.60742,25.947996 L 214.64954,25.947996 L 213.26084,13.535474 L 183.89657,13.535474 L 183.89657,15.076538 C 188.00414,15.076538 188.6622,15.076538 188.6622,17.598888 L 188.6622,47.885814 C 188.6622,50.408211 188.01117,50.408211 183.89657,50.408211 L 183.89657,51.76346 L 214.07345,51.76346 L 216.16003,37.580932 z"
     style="fill:#3b6989;fill-opacity:1;fill-rule:evenodd;stroke:#3b6989;stroke-width:0.6911279;stroke-linejoin:round;stroke-miterlimit:4;stroke-dasharray:none;stroke-opacity:1" />
  <path
     id="path28"
     d="M 231.79411,18.299222 L 240.37459,6.2946109 C 241.23404,5.1160881 242.98106,2.6911201 247.73733,2.6299983 L 247.73733,1.2746876 C 246.41184,1.3811966 244.20818,1.3811966 242.81714,1.3811966 C 240.90386,1.3811966 238.52689,1.3811966 237.08197,1.2746876 L 237.08197,2.6299983 C 238.93905,2.7976371 239.39571,3.9217916 239.39571,4.8260236 C 239.39571,5.4968949 239.11235,5.9501781 238.70018,6.5076209 L 231.04238,17.254455 L 222.46191,5.1003144 C 222.05911,4.4883674 222.00524,4.3115956 222.00524,4.1439567 C 222.00524,3.6385037 222.63754,2.682146 224.55785,2.6299983 L 224.55785,1.2746876 C 222.70077,1.3811966 219.8648,1.3811966 217.95387,1.3811966 C 216.45276,1.3811966 213.55357,1.3811966 212.15316,1.2746876 L 212.15316,2.6299983 C 215.3357,2.6299983 216.38016,2.7456253 217.66114,4.4883674 L 228.84809,20.38873 L 218.75712,34.650602 C 216.2701,38.138442 212.49974,38.199633 211.39439,38.199633 L 211.39439,39.554882 C 212.71987,39.448366 214.92588,39.448366 216.31459,39.448366 C 217.87893,39.448366 220.60483,39.448366 222.05209,39.554882 L 222.05209,38.199633 C 220.25823,38.031926 219.73601,36.90784 219.73601,36.003585 C 219.73601,35.278367 220.01937,34.879498 220.3121,34.480629 L 229.58811,21.379151 L 239.67907,35.729362 C 240.13573,36.35033 240.13573,36.518036 240.13573,36.685742 C 240.13573,37.127671 239.61584,38.093117 237.58313,38.208699 L 237.58313,39.563948 C 239.4402,39.457431 242.27617,39.457431 244.18945,39.457431 C 245.68822,39.457431 248.58975,39.457431 249.99719,39.563948 L 249.99719,38.208699 C 246.28304,38.208699 245.69759,37.934476 244.54541,36.35033 L 231.79411,18.299222 z"
     style="fill:#3b6989;fill-opacity:1;fill-rule:evenodd;stroke:#3b6989;stroke-width:0.6911279;stroke-linejoin:round;stroke-miterlimit:4;stroke-dasharray:none;stroke-opacity:1" />
</svg>
