<?xml version="1.0" encoding="UTF-8" standalone="no"?>
<!-- Created with Inkscape (http://www.inkscape.org/) -->
<svg
   xmlns:dc="http://purl.org/dc/elements/1.1/"
   xmlns:cc="http://creativecommons.org/ns#"
   xmlns:rdf="http://www.w3.org/1999/02/22-rdf-syntax-ns#"
   xmlns:svg="http://www.w3.org/2000/svg"
   xmlns="http://www.w3.org/2000/svg"
   xmlns:sodipodi="http://sodipodi.sourceforge.net/DTD/sodipodi-0.dtd"
   xmlns:inkscape="http://www.inkscape.org/namespaces/inkscape"
   id="svg2440"
   sodipodi:version="0.32"
   inkscape:version="0.46"
   width="106"
   height="154"
   version="1.0"
   sodipodi:docname="minerva.svg"
   inkscape:output_extension="org.inkscape.output.svg.inkscape">
  <metadata
     id="metadata2445">
    <rdf:RDF>
      <cc:Work
         rdf:about="">
        <dc:format>image/svg+xml</dc:format>
        <dc:type
           rdf:resource="http://purl.org/dc/dcmitype/StillImage" />
      </cc:Work>
    </rdf:RDF>
  </metadata>
  <defs
     id="defs2443">
    <inkscape:perspective
       sodipodi:type="inkscape:persp3d"
       inkscape:vp_x="0 : 526.18109 : 1"
       inkscape:vp_y="0 : 1000 : 0"
       inkscape:vp_z="744.09448 : 526.18109 : 1"
       inkscape:persp3d-origin="372.04724 : 350.78739 : 1"
       id="perspective2447" />
  </defs>
  <sodipodi:namedview
     inkscape:window-height="874"
     inkscape:window-width="898"
     inkscape:pageshadow="2"
     inkscape:pageopacity="0.0"
     guidetolerance="10.0"
     gridtolerance="10.0"
     objecttolerance="10.0"
     borderopacity="1.0"
     bordercolor="#666666"
     pagecolor="#ffffff"
     id="base"
     showgrid="false"
     inkscape:zoom="3.1876035"
     inkscape:cx="54.27851"
     inkscape:cy="75.44942"
     inkscape:window-x="0"
     inkscape:window-y="-1"
     inkscape:current-layer="svg2440" />
  <path
     style="fill:#000000;fill-opacity:1"
     d="M 27.333621,151.41325 C 26.196453,151.1931 24.984742,150.73167 24.640929,150.38785 C 24.297116,150.04404 23.482771,149.76274 22.831273,149.76274 C 22.179774,149.76274 21.341994,149.39555 20.969538,148.94677 C 20.597082,148.49799 19.963746,148.1308 19.562125,148.1308 C 19.160503,148.1308 18.581598,147.6631 18.275668,147.09147 C 17.969738,146.51983 16.904434,145.54843 15.908326,144.93281 C 12.973337,143.11888 9.4796559,138.60672 9.4303464,136.56636 C 9.4069124,135.5967 9.1194058,134.62994 8.7914436,134.41801 C 8.3668307,134.14362 8.3859123,133.84191 8.8577192,133.37011 C 9.3784966,132.84933 9.7359348,132.90269 10.52794,133.61944 C 11.81776,134.78672 12.599865,134.77528 13.057597,133.58245 C 13.309141,132.92693 12.948702,132.23501 11.891846,131.34459 C 10.781465,130.40907 10.660287,130.16413 11.449922,130.45129 C 14.097652,131.41417 14.441801,131.4037 14.441801,130.36026 C 14.441801,129.78293 13.704305,128.89049 12.772206,128.33989 C 11.853928,127.79745 11.244963,127.21128 11.41895,127.03729 C 11.592938,126.86331 12.483446,127.27409 13.397856,127.95014 C 14.955285,129.1016 16.617713,129.18155 16.617713,128.105 C 16.617713,127.40063 15.000179,126.10469 12.537878,124.8363 L 10.361965,123.71544 L 12.400377,123.88033 C 13.831757,123.99612 14.774986,124.47263 15.567733,125.48044 C 16.188653,126.26981 16.9237,126.91566 17.201173,126.91566 C 17.967887,126.91566 17.804843,125.1057 16.869173,123.2301 C 16.001291,121.49039 14.322955,120.82627 11.721911,121.19331 C 10.973941,121.29886 9.9216147,121.40561 9.3834077,121.43055 C 8.7956562,121.45777 8.029975,122.31319 7.4661835,123.57246 C 6.6665895,125.35841 6.4201455,125.55409 5.8028144,124.89324 C 5.1940164,124.24152 5.2831443,123.89697 6.3600933,122.73894 C 7.0651833,121.98077 8.2194594,121.13757 8.9251507,120.86517 C 9.9617624,120.46503 10.084123,120.22036 9.562154,119.59142 C 9.1375845,119.07985 9.0894484,118.50316 9.421751,117.90937 C 10.059483,116.76981 9.2962335,112.48631 8.1414029,110.72382 C 7.3696201,109.54593 7.3677594,109.32461 8.1226264,108.49049 C 9.0532266,107.46219 10.819472,103.5246 10.350127,103.5246 C 10.185991,103.5246 9.4406962,103.92495 8.6939154,104.41425 C 6.8716804,105.60823 6.5242383,105.07457 7.5096231,102.59521 C 7.9604606,101.46084 8.5080746,98.941586 8.7265422,96.996865 C 10.588433,80.422981 21.066344,70.882317 35.928935,72.227718 C 41.854618,72.764127 41.734354,72.664703 40.119879,75.692394 L 38.733506,78.292317 L 40.051111,80.08001 C 41.48258,82.022193 46.252138,85.742935 53.779907,90.789876 L 58.575406,94.004985 L 56.812395,95.484177 C 55.84274,96.297733 53.746544,97.644079 52.154184,98.476057 C 48.807731,100.22451 48.619693,100.95969 50.282666,105.7932 C 51.405618,109.05712 51.068081,110.59632 49.229367,110.59632 C 48.341936,110.59632 48.168441,110.97883 48.168441,112.93542 C 48.168441,114.22193 47.91743,115.52554 47.610639,115.83233 C 47.303848,116.13912 46.95116,117.19354 46.826888,118.17549 C 46.545639,120.39779 46.571194,120.37464 44.020012,120.71841 C 40.077891,121.24962 39.417962,121.5077 38.980952,122.68905 C 38.568927,123.80286 38.855022,123.94818 44.036299,125.25682 C 50.783465,126.96097 56.577335,130.01903 57.114607,132.15969 C 57.514833,133.75433 56.559144,136.6365 55.318398,137.5767 C 54.88476,137.9053 54.710955,138.467 54.932164,138.82492 C 55.327599,139.46475 48.598399,146.49887 47.590873,146.49887 C 47.330105,146.49887 46.259985,147.35563 45.212827,148.40279 C 44.062881,149.55274 42.775882,150.30672 41.96293,150.30672 C 41.222644,150.30672 40.456,150.56715 40.259277,150.88545 C 40.049725,151.22452 38.345353,151.41372 36.143793,151.34231 C 34.077,151.27528 32.22439,151.38204 32.026881,151.57954 C 31.59821,152.00821 30.139855,151.95654 27.333621,151.41325 z"
     id="path2909" />
  <path
     style="fill:#ffffff;fill-opacity:1"
     d="M 26.556446,149.69228 C 26.228476,149.36431 25.649068,149.28821 25.268873,149.52319 C 24.758244,149.83877 24.852469,150.0502 25.629459,150.33227 C 26.917346,150.79982 27.359041,150.49487 26.556446,149.69228 z"
     id="path2907" />
  <path
     style="fill:#ffffff;fill-opacity:1"
     d="M 31.481136,150.44271 C 31.613259,150.21832 31.49945,149.44678 31.228229,148.72819 L 30.735099,147.42165 L 29.404941,148.67127 C 28.673355,149.35856 28.204081,150.13009 28.362111,150.38579 C 28.716172,150.95867 31.15117,151.00311 31.481136,150.44271 z"
     id="path2905" />
  <path
     style="fill:#ffffff;fill-opacity:1"
     d="M 37.832858,150.30672 C 36.778216,149.62515 36.200924,149.62515 36.200924,150.30672 C 36.200924,150.6059 36.751702,150.84695 37.424874,150.84237 C 38.414609,150.83563 38.492681,150.73312 37.832858,150.30672 z"
     id="path2903" />
  <path
     style="fill:#ffffff;fill-opacity:1"
     d="M 35.54815,149.65394 C 36.491621,148.71047 36.353974,147.94411 35.100439,147.16127 C 33.864117,146.38917 31.849099,147.10304 31.849099,148.31313 C 31.849099,149.26826 32.982534,150.30672 34.025012,150.30672 C 34.503712,150.30672 35.189125,150.01297 35.54815,149.65394 z"
     id="path2901" />
  <path
     style="fill:#ffffff;fill-opacity:1"
     d="M 40.793892,148.55374 C 41.955198,146.89574 41.856309,146.33082 40.276515,145.59809 C 39.11564,145.05966 38.920814,145.10265 38.920814,145.89728 C 38.920814,146.40767 38.64352,147.10255 38.304605,147.44146 C 37.525355,148.22072 38.083553,149.76274 39.144885,149.76274 C 39.586092,149.76274 40.328145,149.21869 40.793892,148.55374 z"
     id="path2899" />
  <path
     style="fill:#ffffff;fill-opacity:1"
     d="M 24.475056,148.72387 C 25.174691,147.59184 24.132072,146.50372 22.680752,146.85125 C 20.679883,147.33039 20.544912,147.56292 21.754336,148.44727 C 22.964299,149.33202 24.032109,149.44057 24.475056,148.72387 z"
     id="path2897" />
  <path
     style="fill:#ffffff;fill-opacity:1"
     d="M 43.408633,148.39534 C 43.208234,147.60472 42.041997,147.74289 41.759382,148.59074 C 41.600505,149.06737 41.869303,149.25451 42.530017,149.12727 C 43.088053,149.0198 43.48343,148.69043 43.408633,148.39534 z"
     id="path2895" />
  <path
     style="fill:#ffffff;fill-opacity:1"
     d="M 28.488789,148.20192 C 29.001078,147.87711 29.096282,147.14853 28.819337,145.67228 C 28.482037,143.87432 28.342341,143.71922 27.767853,144.50488 C 27.403474,145.0032 26.581555,145.41091 25.941365,145.41091 C 25.183147,145.41091 24.777384,145.75225 24.777384,146.39007 C 24.777384,148.28277 26.802217,149.27126 28.488789,148.20192 z"
     id="path2893" />
  <path
     style="fill:#ffffff;fill-opacity:1"
     d="M 33.189839,145.53679 C 33.370263,145.06662 33.319226,144.53996 33.076423,144.36645 C 32.83362,144.19294 32.352316,143.43899 32.006858,142.69102 C 31.560515,141.72462 31.3681,141.60102 31.341938,142.2639 C 31.321689,142.77695 30.815541,143.45874 30.217165,143.77898 C 28.92016,144.47312 28.850784,145.05478 29.935607,146.1396 C 30.887275,147.09127 32.723882,146.75106 33.189839,145.53679 z"
     id="path2891" />
  <path
     style="fill:#ffffff;fill-opacity:1"
     d="M 37.324642,146.47973 C 38.672948,145.75814 38.660802,144.74857 37.28888,143.50699 C 36.602232,142.88558 36.200924,142.76849 36.200924,143.18955 C 36.200924,143.55648 35.825289,144.23232 35.36618,144.69143 C 34.723187,145.33443 34.676008,145.70037 35.160798,146.28451 C 35.914084,147.19216 35.981994,147.19829 37.324642,146.47973 z"
     id="path2889" />
  <path
     style="fill:#ffffff;fill-opacity:1"
     d="M 45.427461,145.9943 C 46.092907,144.7509 45.634759,143.235 44.593524,143.235 C 43.769079,143.235 42.728661,144.88424 42.728661,146.19112 C 42.728661,147.40306 44.752506,147.25547 45.427461,145.9943 z"
     id="path2887" />
  <path
     style="fill:#ffffff;fill-opacity:1"
     d="M 18.965442,145.54691 C 19.468711,144.67697 18.529604,143.26976 17.762267,143.744 C 17.344199,144.00238 17.153294,144.60441 17.337341,145.08403 C 17.687219,145.99579 18.561892,146.24447 18.965442,145.54691 z"
     id="path2885" />
  <path
     style="fill:#ffffff;fill-opacity:1"
     d="M 23.38291,145.46678 C 23.548827,145.19832 23.529615,144.20386 23.340217,143.25687 C 23.097139,142.04148 22.825863,141.70506 22.417879,142.11305 C 22.099992,142.43093 21.42547,142.69102 20.918942,142.69102 C 19.737065,142.69102 19.134387,144.23861 19.938804,145.20787 C 20.633901,146.04541 22.919124,146.2172 23.38291,145.46678 z"
     id="path2883" />
  <path
     style="fill:#ffffff;fill-opacity:1"
     d="M 48.614259,144.45339 C 48.746284,143.52801 48.51735,143.235 47.662298,143.235 C 46.815552,143.235 46.536507,143.58197 46.536507,144.63483 C 46.536507,146.42035 48.356304,146.26144 48.614259,144.45339 z"
     id="path2881" />
  <path
     style="fill:#ffffff;fill-opacity:1"
     d="M 42.576636,143.73602 C 43.069144,142.75909 43.07956,142.36398 42.616973,142.20582 C 41.832038,141.93745 39.903694,144.25683 40.333526,144.95231 C 40.82406,145.74601 41.841435,145.19436 42.576636,143.73602 z"
     id="path2879" />
  <path
     style="fill:#ffffff;fill-opacity:1"
     d="M 27.394117,142.55503 C 27.512045,141.13017 27.34352,140.51511 26.835184,140.51511 C 25.782868,140.51511 23.689428,142.09227 23.689428,142.88506 C 23.689428,143.96451 24.942012,144.92219 26.130976,144.75179 C 26.967578,144.63188 27.265045,144.11455 27.394117,142.55503 z"
     id="path2877" />
  <path
     style="fill:#ffffff;fill-opacity:1"
     d="M 35.552641,142.55891 C 35.651739,142.04433 35.388536,141.13178 34.967743,140.53102 C 34.212178,139.4523 34.193901,139.45509 33.49758,140.75619 C 33.109781,141.48079 32.946674,142.47544 33.135118,142.96652 C 33.568579,144.0961 35.313256,143.80193 35.552641,142.55891 z"
     id="path2875" />
  <path
     style="fill:#ffffff;fill-opacity:1"
     d="M 40.552748,141.65053 C 40.552748,141.09932 40.216903,140.3696 39.806425,140.02893 C 39.214296,139.53751 38.922499,139.74174 38.394084,141.01745 C 38.027775,141.9018 37.888895,142.88558 38.085465,143.20364 C 38.624234,144.07539 40.552748,142.86143 40.552748,141.65053 z"
     id="path2873" />
  <path
     style="fill:#ffffff;fill-opacity:1"
     d="M 15.118918,141.87506 C 14.854792,140.49337 13.705675,140.04973 13.067129,141.08291 C 12.644413,141.76689 13.761716,143.235 14.704963,143.235 C 15.13049,143.235 15.283067,142.73375 15.118918,141.87506 z"
     id="path2871" />
  <path
     style="fill:#ffffff;fill-opacity:1"
     d="M 18.793626,140.96305 C 18.793626,139.6232 18.596631,139.3808 17.62523,139.52531 C 16.982613,139.62092 16.187045,140.14187 15.857302,140.68297 C 15.381249,141.46416 15.464726,141.82059 16.262604,142.41353 C 17.691181,143.47518 18.793626,142.84339 18.793626,140.96305 z"
     id="path2869" />
  <path
     style="fill:#ffffff;fill-opacity:1"
     d="M 30.497357,142.67775 C 30.921179,141.99199 30.285853,138.88318 29.721886,138.88318 C 29.003838,138.88318 27.884484,141.49787 28.223887,142.38234 C 28.592867,143.34388 29.974696,143.52343 30.497357,142.67775 z"
     id="path2867" />
  <path
     style="fill:#ffffff;fill-opacity:1"
     d="M 50.779536,142.58223 C 51.634843,141.72692 51.615884,140.51511 50.747195,140.51511 C 49.939098,140.51511 48.627918,142.4252 49.107087,142.90437 C 49.599259,143.39653 50.052534,143.30923 50.779536,142.58223 z"
     id="path2865" />
  <path
     style="fill:#ffffff;fill-opacity:1"
     d="M 46.440399,141.42199 C 46.558989,140.81052 46.248898,140.51511 45.488438,140.51511 C 44.868124,140.51511 44.360595,140.8415 44.360595,141.24041 C 44.360595,142.90648 46.122662,143.06032 46.440399,141.42199 z"
     id="path2863" />
  <path
     style="fill:#ffffff;fill-opacity:1"
     d="M 22.271139,141.15349 C 22.423958,140.90623 22.417291,140.20029 22.256324,139.58476 C 21.838707,137.98778 19.881582,138.58266 19.881582,140.30657 C 19.881582,141.22728 20.187622,141.60307 20.937434,141.60307 C 21.518153,141.60307 22.11832,141.40076 22.271139,141.15349 z"
     id="path2861" />
  <path
     style="fill:#ffffff;fill-opacity:1"
     d="M 48.984408,140.51511 C 48.984408,140.11619 48.678421,139.68781 48.304436,139.56315 C 47.899939,139.42832 47.624463,139.81398 47.624463,140.51511 C 47.624463,141.21624 47.899939,141.6019 48.304436,141.46707 C 48.678421,141.34241 48.984408,140.91403 48.984408,140.51511 z"
     id="path2859" />
  <path
     style="fill:#ffffff;fill-opacity:1"
     d="M 37.788258,140.05447 C 38.589833,138.55671 37.456809,137.63978 36.240111,138.80158 C 35.203721,139.79121 35.356406,141.05909 36.511973,141.05909 C 36.918219,141.05909 37.492547,140.60701 37.788258,140.05447 z"
     id="path2857" />
  <path
     style="fill:#ffffff;fill-opacity:1"
     d="M 43.534721,140.17531 C 44.46695,139.24309 44.475275,136.78592 43.544628,137.25124 C 43.24544,137.40084 43.07134,137.7353 43.15774,137.9945 C 43.24414,138.2537 42.932509,139.04927 42.465227,139.76243 C 41.499792,141.23587 42.202775,141.50726 43.534721,140.17531 z"
     id="path2855" />
  <path
     style="fill:#ffffff;fill-opacity:1"
     d="M 12.809867,139.66704 C 12.809867,139.5351 12.565077,139.42715 12.265889,139.42715 C 11.966701,139.42715 11.721911,139.68639 11.721911,140.00324 C 11.721911,140.32008 11.966701,140.42803 12.265889,140.24312 C 12.565077,140.05821 12.809867,139.79897 12.809867,139.66704 z"
     id="path2853" />
  <path
     style="fill:#ffffff;fill-opacity:1"
     d="M 25.321362,139.41008 C 25.321362,138.09473 23.76552,137.3359 23.140878,138.3466 C 22.501526,139.38109 23.103298,140.51511 24.291606,140.51511 C 24.964013,140.51511 25.321362,140.13164 25.321362,139.41008 z"
     id="path2851" />
  <path
     style="fill:#ffffff;fill-opacity:1"
     d="M 33.150845,139.65465 C 33.902232,137.69657 33.355105,137.30705 31.658632,138.59229 C 31.105093,139.01165 30.813552,139.61584 31.010763,139.93494 C 31.54404,140.7978 32.773993,140.63671 33.150845,139.65465 z"
     id="path2849" />
  <path
     style="fill:#ffffff;fill-opacity:1"
     d="M 53.608222,139.36295 C 53.608222,139.06376 53.363432,138.97026 53.064244,139.15517 C 52.765056,139.34007 52.520266,139.73615 52.520266,140.03534 C 52.520266,140.33453 52.765056,140.42803 53.064244,140.24312 C 53.363432,140.05821 53.608222,139.66214 53.608222,139.36295 z"
     id="path2847" />
  <path
     style="fill:#ffffff;fill-opacity:1"
     d="M 28.274386,139.11631 C 29.248068,138.14263 29.299764,137.81868 28.646081,136.78709 C 28.282237,136.21291 27.925039,136.1872 27.022476,136.67024 C 25.727119,137.36349 25.540913,138.34116 26.518114,139.31836 C 27.330511,140.13076 27.250766,140.13993 28.274386,139.11631 z"
     id="path2845" />
  <path
     style="fill:#ffffff;fill-opacity:1"
     d="M 42.184683,138.3392 C 42.184683,136.75903 41.322722,136.59454 40.660349,138.04829 C 40.214358,139.02713 40.228528,139.41408 40.716799,139.58975 C 41.673289,139.9339 42.184683,139.49822 42.184683,138.3392 z"
     id="path2843" />
  <path
     style="fill:#ffffff;fill-opacity:1"
     d="M 11.177933,136.97925 C 11.177933,135.63291 10.933142,134.53135 10.633954,134.53135 C 10.033169,134.53135 9.8749506,138.48682 10.452629,139.0645 C 11.095351,139.70723 11.177933,139.4698 11.177933,136.97925 z"
     id="path2841" />
  <path
     style="fill:#ffffff;fill-opacity:1"
     d="M 15.529757,138.06721 C 15.529757,137.0837 15.237495,136.70726 14.473905,136.70726 C 13.893186,136.70726 13.25952,136.96378 13.065756,137.27729 C 12.483033,138.22016 13.246,139.42715 14.424728,139.42715 C 15.240774,139.42715 15.529757,139.07151 15.529757,138.06721 z"
     id="path2839" />
  <path
     style="fill:#ffffff;fill-opacity:1"
     d="M 46.904836,138.55629 C 47.240255,137.6822 46.120871,136.56374 45.373144,137.02586 C 45.153505,137.1616 45.010318,137.75742 45.054948,138.34991 C 45.152194,139.64088 46.433774,139.78385 46.904836,138.55629 z"
     id="path2837" />
  <path
     style="fill:#ffffff;fill-opacity:1"
     d="M 50.534385,138.62861 C 50.918025,137.62886 49.898103,136.93592 49.147602,137.68642 C 48.566954,138.26707 48.984595,139.42715 49.77428,139.42715 C 50.023801,139.42715 50.365848,139.06781 50.534385,138.62861 z"
     id="path2835" />
  <path
     style="fill:#ffffff;fill-opacity:1"
     d="M 52.48005,136.63212 C 51.711869,135.19676 50.689792,135.35195 51.089448,136.84326 C 51.269851,137.51643 51.428582,138.43439 51.442182,138.88318 C 51.461381,139.51667 51.640803,139.46945 52.2445,138.67204 C 52.803954,137.93306 52.870032,137.36081 52.48005,136.63212 z"
     id="path2833" />
  <path
     style="fill:#ffffff;fill-opacity:1"
     d="M 18.695465,137.34463 C 18.826118,136.45671 18.589669,136.16329 17.743504,136.16329 C 17.01448,136.16329 16.617713,136.51477 16.617713,137.16058 C 16.617713,139.22858 18.395084,139.38602 18.695465,137.34463 z"
     id="path2831" />
  <path
     style="fill:#ffffff;fill-opacity:1"
     d="M 35.951304,137.75903 C 36.148515,137.43993 35.858524,136.84882 35.306881,136.44545 C 34.205323,135.63997 33.365317,136.31673 33.861551,137.6099 C 34.196379,138.48244 35.448963,138.57183 35.951304,137.75903 z"
     id="path2829" />
  <path
     style="fill:#ffffff;fill-opacity:1"
     d="M 40.00877,136.70726 C 40.00877,135.34933 38.692825,134.98841 37.9688,136.14776 C 37.548325,136.82104 37.539079,137.28385 37.938131,137.6829 C 38.733393,138.47816 40.00877,137.87724 40.00877,136.70726 z"
     id="path2827" />
  <path
     style="fill:#ffffff;fill-opacity:1"
     d="M 21.959334,136.29372 C 22.08995,135.37822 21.861279,135.07533 21.039476,135.07533 C 19.737459,135.07533 19.119464,135.89816 19.559744,137.0455 C 20.025064,138.25811 21.756464,137.71567 21.959334,136.29372 z"
     id="path2825" />
  <path
     style="fill:#ffffff;fill-opacity:1"
     d="M 31.998409,137.46458 C 32.467179,136.99581 31.174665,135.07533 30.390406,135.07533 C 29.357344,135.07533 28.973526,136.13621 29.692963,137.00308 C 30.375792,137.82584 31.426769,138.03622 31.998409,137.46458 z"
     id="path2823" />
  <path
     style="fill:#ffffff;fill-opacity:1"
     d="M 48.712419,136.40317 C 48.712419,135.60211 48.064319,135.36078 47.480618,135.94448 C 46.990257,136.43484 47.665462,137.83409 48.225442,137.488 C 48.49328,137.32247 48.712419,136.83429 48.712419,136.40317 z"
     id="path2821" />
  <path
     style="fill:#ffffff;fill-opacity:1"
     d="M 24.620936,136.81547 C 25.458078,136.28347 24.897176,133.98737 23.930076,133.98737 C 22.913502,133.98737 22.472296,134.89933 22.875006,136.16815 C 23.246206,137.3377 23.595417,137.46717 24.620936,136.81547 z"
     id="path2819" />
  <path
     style="fill:#ffffff;fill-opacity:1"
     d="M 54.696178,135.61931 C 54.696178,134.46363 53.871017,133.76075 53.084757,134.24668 C 52.755953,134.4499 52.785533,135.06236 53.164302,135.89366 C 53.83301,137.36132 54.696178,137.20673 54.696178,135.61931 z"
     id="path2817" />
  <path
     style="fill:#ffffff;fill-opacity:1"
     d="M 28.041253,133.92077 C 28.041253,133.28131 27.656215,132.89942 27.011496,132.89942 C 25.735391,132.89942 25.087079,134.40957 25.92813,135.42298 C 26.717008,136.37352 28.041253,135.43212 28.041253,133.92077 z"
     id="path2815" />
  <path
     style="fill:#ffffff;fill-opacity:1"
     d="M 37.560869,135.06788 C 37.560869,134.6232 37.010091,134.18114 36.336918,134.08553 C 35.146256,133.91643 34.637818,134.96283 35.494425,135.81944 C 36.128177,136.45319 37.560869,135.93213 37.560869,135.06788 z"
     id="path2813" />
  <path
     style="fill:#ffffff;fill-opacity:1"
     d="M 43.436099,135.43399 C 43.590022,135.03287 43.493817,134.35969 43.22231,133.93805 C 42.801494,133.28452 42.649631,133.29179 42.193013,133.98737 C 41.898406,134.43616 41.653616,135.10933 41.649034,135.48331 C 41.637871,136.39458 43.082789,136.3547 43.436099,135.43399 z"
     id="path2811" />
  <path
     style="fill:#ffffff;fill-opacity:1"
     d="M 45.448551,134.77123 C 45.448551,134.34011 45.203761,133.98737 44.904573,133.98737 C 44.605385,133.98737 44.360595,134.4914 44.360595,135.10744 C 44.360595,135.72347 44.605385,136.07621 44.904573,135.8913 C 45.203761,135.70639 45.448551,135.20236 45.448551,134.77123 z"
     id="path2809" />
  <path
     style="fill:#ffffff;fill-opacity:1"
     d="M 15.937995,134.93934 C 15.595276,133.91003 13.897823,133.76369 13.897823,134.76346 C 13.897823,135.26807 14.362922,135.61931 15.03111,135.61931 C 15.695837,135.61931 16.070791,135.33817 15.937995,134.93934 z"
     id="path2807" />
  <path
     style="fill:#ffffff;fill-opacity:1"
     d="M 33.922974,134.38746 C 34.13947,133.26329 32.569114,132.50579 31.740304,133.3346 C 30.911494,134.16341 31.668995,135.73377 32.793169,135.51727 C 33.314217,135.41693 33.822629,134.90851 33.922974,134.38746 z"
     id="path2805" />
  <path
     style="fill:#ffffff;fill-opacity:1"
     d="M 46.655072,133.34437 C 46.314467,133.00376 46.23865,133.36145 46.441041,134.35411 C 46.673172,135.49264 46.809962,135.62943 46.968484,134.88155 C 47.0862,134.3262 46.945165,133.63446 46.655072,133.34437 z"
     id="path2803" />
  <path
     style="fill:#ffffff;fill-opacity:1"
     d="M 50.344354,134.49925 C 50.344354,133.88321 50.099564,133.53048 49.800376,133.71538 C 49.501188,133.90029 49.256398,134.40432 49.256398,134.83545 C 49.256398,135.26657 49.501188,135.61931 49.800376,135.61931 C 50.099564,135.61931 50.344354,135.11528 50.344354,134.49925 z"
     id="path2801" />
  <path
     style="fill:#ffffff;fill-opacity:1"
     d="M 18.793626,133.98737 C 18.793626,133.26207 18.430973,132.89942 17.705669,132.89942 C 16.65732,132.89942 16.231545,133.96386 16.980365,134.71268 C 17.729186,135.4615 18.793626,135.03572 18.793626,133.98737 z"
     id="path2799" />
  <path
     style="fill:#ffffff;fill-opacity:1"
     d="M 41.379077,132.91618 C 41.099288,132.46347 40.692205,132.55291 39.941909,133.23191 C 39.140534,133.95715 39.057541,134.2797 39.58793,134.60762 C 40.459635,135.14658 41.910669,133.77632 41.379077,132.91618 z"
     id="path2797" />
  <path
     style="fill:#ffffff;fill-opacity:1"
     d="M 21.957311,132.7621 C 22.100526,131.52175 21.964744,131.33488 21.141344,131.63912 C 19.863129,132.11141 19.365364,132.88278 19.728369,133.82875 C 20.216666,135.10123 21.773233,134.35635 21.957311,132.7621 z"
     id="path2795" />
  <path
     style="fill:#ffffff;fill-opacity:1"
     d="M 31.096394,133.11302 C 31.329699,132.18346 31.198963,131.53807 30.717019,131.24021 C 29.7046,130.6145 28.585231,131.66352 28.585231,133.23801 C 28.585231,135.10956 30.620724,135.00824 31.096394,133.11302 z"
     id="path2793" />
  <path
     style="fill:#ffffff;fill-opacity:1"
     d="M 56.328112,133.17141 C 56.328112,132.42344 56.103721,131.81146 55.829466,131.81146 C 55.192304,131.81146 54.782035,132.96907 55.106499,133.85138 C 55.539497,135.02882 56.328112,134.58986 56.328112,133.17141 z"
     id="path2791" />
  <path
     style="fill:#ffffff;fill-opacity:1"
     d="M 48.712419,133.20351 C 48.712419,132.38691 47.735797,131.5188 47.303478,131.95112 C 46.924066,132.33053 47.675217,133.98737 48.226641,133.98737 C 48.493819,133.98737 48.712419,133.63464 48.712419,133.20351 z"
     id="path2789" />
  <path
     style="fill:#ffffff;fill-opacity:1"
     d="M 52.16632,132.61 C 51.997783,132.17081 51.641288,131.81146 51.37411,131.81146 C 50.815936,131.81146 50.717776,133.09151 51.236195,133.60993 C 51.816487,134.19022 52.493441,133.46247 52.16632,132.61 z"
     id="path2787" />
  <path
     style="fill:#ffffff;fill-opacity:1"
     d="M 15.945965,131.49752 L 16.090182,129.90754 L 15.285268,131.26748 C 14.28841,132.95173 14.236418,133.6015 15.121774,133.31078 C 15.495758,133.18798 15.866644,132.37201 15.945965,131.49752 z"
     id="path2785" />
  <path
     style="fill:#ffffff;fill-opacity:1"
     d="M 25.2215,131.63352 C 25.357056,130.48845 25.16443,130.17953 24.31487,130.17953 C 23.015761,130.17953 22.563646,131.18058 23.255786,132.52449 C 23.95181,133.87594 25.012976,133.39496 25.2215,131.63352 z"
     id="path2783" />
  <path
     style="fill:#ffffff;fill-opacity:1"
     d="M 38.920814,132.87456 C 39.540227,132.4554 39.407547,132.39828 38.370015,132.63745 C 36.660922,133.03143 32.556308,131.27442 30.78765,129.39178 C 30.07039,128.62829 29.220223,128.01366 28.898391,128.02592 C 28.576559,128.0382 29.386926,129.01899 30.699207,130.20547 C 33.756673,132.96984 37.151426,134.07192 38.920814,132.87456 z"
     id="path2781" />
  <path
     style="fill:#ffffff;fill-opacity:1"
     d="M 44.721887,132.04688 C 44.901818,131.57799 44.771741,130.91706 44.432826,130.57814 C 43.983316,130.12864 43.816617,130.12649 43.816617,130.57022 C 43.816617,130.90477 43.668032,131.56571 43.486428,132.03896 C 43.304506,132.51304 43.434304,132.89942 43.77549,132.89942 C 44.116077,132.89942 44.541957,132.51578 44.721887,132.04688 z"
     id="path2779" />
  <path
     style="fill:#ffffff;fill-opacity:1"
     d="M 19.13535,129.98693 C 19.037368,129.34489 18.617761,128.81958 18.20289,128.81958 C 17.349798,128.81958 16.906426,130.36162 17.394111,131.63251 C 17.876123,132.88861 19.363639,131.48282 19.13535,129.98693 z"
     id="path2777" />
  <path
     style="fill:#ffffff;fill-opacity:1"
     d="M 50.344354,130.96339 C 50.344354,130.16233 49.696253,129.921 49.112552,130.5047 C 48.622191,130.99506 49.297397,132.39431 49.857376,132.04822 C 50.125214,131.88269 50.344354,131.39451 50.344354,130.96339 z"
     id="path2775" />
  <path
     style="fill:#ffffff;fill-opacity:1"
     d="M 54.424189,130.95761 C 54.424189,130.38827 53.995806,129.83994 53.472228,129.73911 C 52.514869,129.55474 52.09404,131.20391 52.894251,132.00412 C 53.53692,132.64679 54.424189,132.03988 54.424189,130.95761 z"
     id="path2773" />
  <path
     style="fill:#ffffff;fill-opacity:1"
     d="M 28.475487,130.40391 C 28.69442,128.8716 27.079744,127.47071 26.376189,128.58257 C 26.104385,129.01212 25.878252,129.93136 25.87367,130.62534 C 25.867074,131.62454 26.120054,131.85095 27.089291,131.7133 C 27.842533,131.60632 28.375638,131.10276 28.475487,130.40391 z"
     id="path2771" />
  <path
     style="fill:#ffffff;fill-opacity:1"
     d="M 38.830876,130.25278 C 38.931003,129.5451 38.747411,128.70058 38.422892,128.37605 C 37.998832,127.952 37.830515,128.08441 37.824528,128.84678 C 37.817586,129.73084 37.728358,129.77161 37.28888,129.09157 C 36.406825,127.72669 36.676809,125.60261 38.086201,122.81871 C 38.823915,121.36153 39.374693,120.12619 39.310151,120.07349 C 39.24561,120.02079 38.182837,119.46854 36.948435,118.84625 C 34.550893,117.63761 32.393077,114.64691 32.393077,112.53259 C 32.393077,111.72438 31.999723,111.16432 31.30437,110.98248 C 30.705582,110.82589 30.332596,110.88698 30.475513,111.11822 C 30.851986,111.72737 27.51252,117.69633 26.599158,118.04682 C 26.174769,118.20967 25.108426,119.38811 24.229506,120.66558 L 22.631469,122.98825 L 24.384399,123.70497 C 25.348511,124.09917 27.36128,125.56595 28.85722,126.96448 C 33.834327,131.61751 38.423698,133.13062 38.830876,130.25278 z"
     id="path2769" />
  <path
     style="fill:#ffffff;fill-opacity:1"
     d="M 42.728661,131.0276 C 42.728661,130.59648 42.509521,130.1083 42.241683,129.94277 C 41.681704,129.59668 41.006498,130.99593 41.496859,131.48629 C 42.08056,132.06999 42.728661,131.82866 42.728661,131.0276 z"
     id="path2767" />
  <path
     style="fill:#ffffff;fill-opacity:1"
     d="M 47.080485,130.21163 C 47.080485,129.01531 46.261064,128.31742 45.44708,128.82049 C 45.084355,129.04467 45.090766,129.511 45.466219,130.21254 C 46.19277,131.57011 47.080485,131.56961 47.080485,130.21163 z"
     id="path2765" />
  <path
     style="fill:#ffffff;fill-opacity:1"
     d="M 21.906189,130.11324 C 22.653888,129.36554 22.20795,128.00361 21.215431,128.00361 C 20.259763,128.00361 19.709351,128.94607 20.088294,129.93359 C 20.451473,130.88002 21.077543,130.94188 21.906189,130.11324 z"
     id="path2763" />
  <path
     style="fill:#ffffff;fill-opacity:1"
     d="M 51.976288,129.42176 C 51.976288,129.00499 51.609103,128.52309 51.160321,128.35087 C 50.342422,128.03702 50.008155,129.11802 50.707006,129.81687 C 51.316922,130.42679 51.976288,130.22154 51.976288,129.42176 z"
     id="path2761" />
  <path
     style="fill:#ffffff;fill-opacity:1"
     d="M 25.86534,128.02333 C 25.86534,127.52297 24.351767,125.8277 23.905032,125.8277 C 23.283724,125.8277 22.770113,128.32942 23.265218,128.94415 C 23.845424,129.66453 25.86534,128.94919 25.86534,128.02333 z"
     id="path2759" />
  <path
     style="fill:#ffffff;fill-opacity:1"
     d="M 42.728661,128.2435 C 42.728661,127.77706 42.479878,127.54919 42.175809,127.73711 C 41.871741,127.92503 41.763793,128.30666 41.935924,128.58518 C 42.402244,129.3397 42.728661,129.19901 42.728661,128.2435 z"
     id="path2757" />
  <path
     style="fill:#ffffff;fill-opacity:1"
     d="M 49.256398,128.00361 C 49.256398,127.70443 48.99716,127.45964 48.680315,127.45964 C 48.363471,127.45964 48.255522,127.70443 48.44043,128.00361 C 48.625339,128.3028 48.884575,128.54759 49.016512,128.54759 C 49.148449,128.54759 49.256398,128.3028 49.256398,128.00361 z"
     id="path2755" />
  <path
     style="fill:#ffffff;fill-opacity:1"
     d="M 19.337604,126.91566 C 19.337604,126.31728 19.092813,125.8277 18.793626,125.8277 C 18.494438,125.8277 18.249647,125.93008 18.249647,126.0552 C 18.249647,126.18033 18.101063,126.66991 17.919459,127.14316 C 17.702786,127.7078 17.889801,128.00361 18.463437,128.00361 C 18.974951,128.00361 19.337604,127.55227 19.337604,126.91566 z"
     id="path2753" />
  <path
     style="fill:#ffffff;fill-opacity:1"
     d="M 27.489148,126.34667 C 25.422038,124.75857 22.665999,123.55692 20.390848,123.25176 C 19.009092,123.06642 18.422647,122.74596 18.603372,122.275 C 18.751306,121.88949 18.487447,120.82977 18.017017,119.92006 C 17.039188,118.02914 16.788269,115.71386 17.713999,117.12405 C 18.190131,117.84936 18.309164,117.84936 18.785296,117.12405 C 19.578992,115.91499 19.449887,114.4131 18.521637,114.0569 C 17.407461,113.62935 17.4843,113.06114 19.103965,109.75066 C 20.774819,106.33556 20.75777,103.36666 19.065615,103.07221 C 17.759612,102.84495 16.102637,100.90345 16.085831,99.58076 C 16.067938,98.172545 15.345711,98.4187 13.947813,100.30946 C 12.807456,101.85187 12.757212,102.19865 13.336986,104.52529 C 13.684441,105.91963 14.336333,107.62762 14.785634,108.32081 C 15.313889,109.13582 15.42252,109.80858 15.093066,110.22474 C 14.147773,111.41882 13.133063,115.20322 13.060834,117.80403 C 12.995143,120.16941 13.096502,120.38792 14.259416,120.38792 C 15.496567,120.38792 17.705669,122.08685 17.705669,123.03829 C 17.705669,123.29924 18.723669,123.67552 19.967891,123.87448 C 22.228244,124.23593 24.436724,125.25051 26.900347,127.05927 C 28.651802,128.34517 29.210432,127.66908 27.489148,126.34667 z"
     id="path2751" />
  <path
     style="fill:#ffffff;fill-opacity:1"
     d="M 22.418786,126.6071 C 22.87217,125.4256 21.72117,124.3145 20.897307,125.13836 C 20.200997,125.83468 20.632362,127.45964 21.513516,127.45964 C 21.831484,127.45964 22.238856,127.076 22.418786,126.6071 z"
     id="path2749" />
  <path
     style="fill:#ffffff;fill-opacity:1"
     d="M 38.733639,126.11747 C 38.387804,125.37928 38.020507,125.02033 37.917424,125.3198 C 37.814342,125.61926 38.027908,126.22323 38.392015,126.66196 C 39.346978,127.81262 39.450501,127.64762 38.733639,126.11747 z"
     id="path2747" />
  <path
     style="fill:#ffffff;fill-opacity:1"
     d="M 23.690665,120.29989 C 24.592661,119.05472 25.818148,117.69449 26.413967,117.27716 C 27.009786,116.85983 27.497275,116.24464 27.497275,115.91007 C 27.497275,115.28216 26.741383,115.87527 24.091988,118.58205 C 20.203218,122.55505 20.196732,122.56383 21.151945,122.56383 C 21.646244,122.56383 22.788667,121.54506 23.690665,120.29989 z"
     id="path2745" />
  <path
     style="fill:#ffffff;fill-opacity:1"
     d="M 22.871364,118.76004 C 23.314737,117.90266 24.174808,117.04331 24.782634,116.8504 C 25.39046,116.65748 26.476199,115.33844 27.195388,113.91919 C 27.914575,112.49994 29.623059,110.42093 30.992018,109.29917 C 32.360977,108.17741 33.481033,106.89003 33.481033,106.43832 C 33.481033,105.92787 32.941816,106.25786 32.056292,107.31025 C 31.272684,108.24151 29.987536,109.34109 29.200407,109.75375 C 27.845739,110.46396 24.960653,114.09985 22.547993,118.13736 C 21.946786,119.14347 21.332494,119.84425 21.1829,119.69465 C 21.033306,119.54506 21.412767,118.59949 22.026147,117.59339 C 23.325657,115.46185 23.473744,114.54247 22.370021,115.45848 C 21.132674,116.48538 19.273201,120.52903 20.202269,120.17252 C 20.624267,120.01058 20.969538,120.12964 20.969538,120.4371 C 20.969538,121.34849 22.005001,120.4354 22.871364,118.76004 z"
     id="path2743" />
  <path
     style="fill:#ffffff;fill-opacity:1"
     d="M 45.992529,117.80448 C 45.992529,116.60575 46.350278,115.62006 46.944491,115.1816 C 47.827283,114.53018 47.800553,114.44333 46.57662,113.98619 C 45.269605,113.49803 45.268284,113.49024 46.440625,113.18366 C 47.801796,112.82771 48.119057,110.59632 46.808496,110.59632 C 45.0753,110.59632 46.101831,109.77495 47.954778,109.67913 C 49.031332,109.62346 50.028684,109.46138 50.171116,109.31895 C 50.399475,109.09059 49.185147,104.34151 48.24098,101.77045 C 47.755336,100.44798 46.569682,101.34457 46.420501,103.14709 C 46.353794,103.9531 46.289792,104.61256 46.278275,104.61256 C 46.266759,104.61256 45.402186,104.36495 44.357004,104.06232 C 41.559362,103.25226 35.968327,105.26743 35.082936,107.40495 C 34.735888,108.2428 34.111091,109.21119 33.694498,109.55693 C 32.097362,110.88244 33.125482,115.1051 35.587931,117.33358 C 37.164389,118.76026 41.887327,120.20417 44.123507,119.94311 C 45.858737,119.74053 45.992529,119.58744 45.992529,117.80448 z"
     id="path2741" />
  <path
     style="fill:#ffffff;fill-opacity:1"
     d="M 12.265889,118.75599 C 12.265889,118.4568 11.776308,118.21201 11.177933,118.21201 C 10.579557,118.21201 10.089976,118.4568 10.089976,118.75599 C 10.089976,119.05518 10.579557,119.29997 11.177933,119.29997 C 11.776308,119.29997 12.265889,119.05518 12.265889,118.75599 z"
     id="path2739" />
  <path
     style="fill:#ffffff;fill-opacity:1"
     d="M 20.42556,117.12405 C 21.800111,114.42971 20.955041,114.23287 19.391336,116.88316 C 18.095679,119.07913 18.040054,119.29997 18.78257,119.29997 C 19.075677,119.29997 19.815023,118.3208 20.42556,117.12405 z"
     id="path2737" />
  <path
     style="fill:#ffffff;fill-opacity:1"
     d="M 11.177933,110.77611 L 11.177933,104.42817 L 9.8923263,106.96757 C 8.7103915,109.30219 8.6634706,109.69346 9.3104727,111.81957 C 9.6975365,113.0915 10.158328,114.80535 10.334454,115.62811 C 10.941606,118.46441 11.177933,117.10497 11.177933,110.77611 z"
     id="path2735" />
  <path
     style="fill:#ffffff;fill-opacity:1"
     d="M 13.682866,107.4943 C 13.202716,106.48742 12.809867,105.29028 12.809867,104.83399 C 12.809867,104.3777 12.565077,104.15566 12.265889,104.34057 C 11.952657,104.53416 11.734516,107.25904 11.751628,110.76441 L 11.781345,116.85206 L 13.168605,113.08853 C 14.490726,109.50171 14.514874,109.23904 13.682866,107.4943 z"
     id="path2733" />
  <path
     style="fill:#ffffff;fill-opacity:1"
     d="M 24.250064,113.85127 C 25.307749,113.28521 27.523254,107.16597 27.468021,104.96324 C 27.451931,104.32158 27.004302,105.14294 26.473289,106.78847 C 25.198202,110.73979 23.927245,113.10855 22.863173,113.51687 C 22.386602,113.69975 21.153598,113.49711 20.123164,113.06657 C 19.067306,112.62541 18.249647,112.51671 18.249647,112.81752 C 18.249647,114.09418 22.445501,114.81704 24.250064,113.85127 z"
     id="path2731" />
  <path
     style="fill:#ffffff;fill-opacity:1"
     d="M 24.373262,110.18833 C 25.143658,108.76719 25.940547,106.70581 26.144128,105.60749 L 26.514274,103.61055 L 23.914495,104.27376 C 22.484616,104.63853 21.220793,105.21874 21.105999,105.56312 C 20.954596,106.01733 21.382784,106.05003 22.66531,105.68221 C 23.637726,105.40332 24.535052,105.27686 24.659369,105.40117 C 24.783685,105.52549 24.716365,106.62771 24.509767,107.85055 C 24.015946,110.77345 22.886631,111.8773 20.814163,111.46281 C 19.428809,111.18573 19.299111,111.25443 19.881859,111.9566 C 21.23056,113.58168 22.887336,112.92941 24.373262,110.18833 z"
     id="path2729" />
  <path
     style="fill:#ffffff;fill-opacity:1"
     d="M 23.417414,108.80582 C 24.419674,106.30092 24.31364,106.0671 22.393963,106.54891 C 21.392297,106.80031 20.835471,107.413 20.515998,108.6153 C 19.682867,111.75068 22.17367,111.91424 23.417414,108.80582 z"
     id="path2727" />
  <path
     style="fill:#ffffff;fill-opacity:1"
     d="M 33.209044,108.96438 C 33.750567,108.36601 34.071236,107.87643 33.921642,107.87643 C 33.772048,107.87643 33.206589,108.36601 32.665066,108.96438 C 32.123544,109.56276 31.802875,110.05234 31.952469,110.05234 C 32.102063,110.05234 32.667522,109.56276 33.209044,108.96438 z"
     id="path2725" />
  <path
     style="fill:#ffffff;fill-opacity:1"
     d="M 30.022519,108.1263 C 32.209638,106.45811 33.255139,104.71305 32.51244,103.97035 C 32.174552,103.63246 31.866655,103.92458 31.649743,104.78882 C 31.464059,105.52865 30.455013,106.6386 29.404863,107.25821 C 28.355689,107.87724 27.497275,108.63676 27.497275,108.94604 C 27.497275,109.81008 28.050371,109.63053 30.022519,108.1263 z"
     id="path2723" />
  <path
     style="fill:#ffffff;fill-opacity:1"
     d="M 30.217165,105.70051 C 30.815541,105.10214 31.297677,104.30657 31.288579,103.93258 C 31.279183,103.54634 31.037263,103.65537 30.728536,104.18498 C 30.42961,104.69778 29.648216,105.49335 28.992105,105.95291 C 28.335994,106.41247 28.098433,106.78847 28.464192,106.78847 C 28.829951,106.78847 29.618789,106.29889 30.217165,105.70051 z"
     id="path2721" />
  <path
     style="fill:#ffffff;fill-opacity:1"
     d="M 30.217165,103.1194 C 30.217165,102.45577 30.064825,102.42986 29.401198,102.98062 C 28.952416,103.35308 28.585231,104.025 28.585231,104.47378 C 28.585231,105.13741 28.737571,105.16332 29.401198,104.61256 C 29.84998,104.2401 30.217165,103.56818 30.217165,103.1194 z"
     id="path2719" />
  <path
     style="fill:#ffffff;fill-opacity:1"
     d="M 39.339014,103.87541 C 43.118347,102.5531 52.581801,97.801824 55.320701,95.851556 C 56.733797,94.845342 56.796851,94.668002 56.018327,93.889478 C 55.239803,93.110954 55.079915,93.119647 54.249339,93.985655 C 53.389227,94.882461 53.407267,94.916414 54.560184,94.570688 C 56.310952,94.045682 56.071813,94.554424 53.951998,95.864542 C 51.609079,97.312545 50.751955,97.307802 52.520266,95.85662 C 54.274552,94.416946 53.737836,94.615376 48.308662,97.413699 C 44.401067,99.427764 36.135418,102.98062 35.357332,102.98062 C 35.208121,102.98062 34.841137,102.33648 34.541813,101.5492 C 34.039648,100.22841 34.248335,99.890858 37.241894,97.181843 C 40.806916,93.955683 42.782949,89.965945 42.664679,86.232891 C 42.60184,84.249484 42.593089,84.258401 42.175181,86.731658 C 41.334609,91.706323 38.43913,96.236783 34.415288,98.873306 C 33.171258,99.688426 33.103575,99.927521 33.630681,101.64499 C 34.025621,102.93182 34.535508,103.5246 35.247453,103.5246 C 36.554778,103.5246 42.393817,101.22487 47.272229,98.788599 C 49.32241,97.76474 51.122662,97.049868 51.272788,97.199995 C 51.69627,97.623477 42.341852,102.14126 38.253722,103.48764 C 36.241288,104.15042 34.306342,104.51444 33.953843,104.29658 C 33.552159,104.04833 33.457812,104.1349 33.701077,104.52851 C 34.25792,105.4295 35.213642,105.31879 39.339014,103.87541 z"
     id="path2717" />
  <path
     style="fill:#ffffff;fill-opacity:1"
     d="M 11.216166,100.92674 C 11.237195,100.11165 11.46478,98.955186 11.721911,98.35681 C 12.189421,97.268854 12.189421,97.268854 12.245753,98.35681 C 12.299009,99.385375 12.360486,99.374662 13.371942,98.160551 C 14.576644,96.714476 14.864533,94.502775 13.761828,95.165258 C 13.219444,95.491113 13.218489,95.404928 13.757109,94.739328 C 14.128498,94.280383 14.271292,93.743814 14.074429,93.546951 C 13.877566,93.350088 13.975548,93.189018 14.292166,93.189018 C 15.209878,93.189018 15.706703,90.372548 14.88133,89.849085 C 14.295452,89.477514 14.295551,89.396361 14.881888,89.389502 C 15.27353,89.38492 15.442677,89.136381 15.257768,88.837194 C 15.07286,88.538006 15.276666,88.293215 15.710671,88.293215 C 16.552794,88.293215 17.409792,85.87087 16.874241,85.00433 C 16.697836,84.718901 16.927455,84.485369 17.384504,84.485369 C 17.841553,84.485369 18.100694,84.179381 17.960372,83.805396 C 17.820052,83.431411 18.317315,82.842467 19.065401,82.496631 C 20.704437,81.738916 20.76115,81.983209 19.359796,83.764742 C 17.864178,85.666113 16.06168,90.72005 16.136837,92.801441 C 16.178215,93.947345 16.290277,94.174413 16.462344,93.461007 C 18.051025,86.874161 20.622592,82.361756 23.911128,80.390404 C 25.135539,79.656416 25.865501,79.053565 25.533267,79.050734 C 25.201033,79.047904 24.021449,79.661608 22.911969,80.414522 C 20.98743,81.720549 19.881582,81.793093 19.881582,80.613315 C 19.881582,80.314127 20.126372,80.220625 20.42556,80.405533 C 20.724748,80.590442 20.969538,80.490176 20.969538,80.182721 C 20.969538,79.875266 21.307251,79.753304 21.720012,79.911695 C 22.132773,80.070087 22.957041,79.581125 23.55172,78.825114 C 24.146398,78.069103 24.787845,77.605441 24.977158,77.794753 C 25.16647,77.984066 25.325111,77.792172 25.329692,77.368323 C 25.335515,76.829619 25.45872,76.787374 25.739062,77.227957 C 26.248415,78.028451 29.129209,77.51603 29.129209,76.624935 C 29.129209,76.260896 29.496394,75.963046 29.945176,75.963046 C 30.393958,75.963046 30.761143,76.167037 30.761143,76.416361 C 30.761143,76.665684 31.373118,76.869676 32.121088,76.869676 C 33.039057,76.869676 33.493459,76.560292 33.519267,75.917714 C 33.552605,75.087643 33.610242,75.100433 33.969408,76.017602 C 34.253298,76.742547 34.50527,76.868887 34.780154,76.424114 C 35.060481,75.970535 35.480753,75.940274 36.19453,76.322276 C 36.753075,76.6212 37.580299,76.723703 38.032806,76.550059 C 39.07513,76.150082 40.677252,73.746963 40.127928,73.407462 C 38.943443,72.67541 31.757153,72.459806 28.825709,73.068371 C 17.935849,75.329097 11.873719,82.542108 9.6009341,95.942923 C 9.0205694,99.364876 8.3679186,102.61778 8.1505994,103.17159 C 7.7738064,104.13181 7.8348701,104.13747 9.4667032,103.29362 C 10.727414,102.64168 11.187998,102.01855 11.216166,100.92674 z"
     id="path2715" />
  <path
     style="fill:#ffffff;fill-opacity:1"
     d="M 26.287205,103.24158 C 27.2672,103.17697 28.510426,102.72465 29.049928,102.2364 C 30.398209,101.01623 31.549062,101.12433 32.629299,102.57264 C 33.339853,103.5253 33.474619,103.57439 33.237307,102.79409 C 32.242723,99.523851 32.278863,99.328148 34.118863,98.020379 C 38.121292,95.175674 40.864863,90.561515 41.384365,85.801201 L 41.676377,83.125424 L 40.150213,87.215493 C 38.418336,91.856866 36.63175,94.435095 33.197135,97.249503 C 30.511212,99.450415 25.070286,102.29647 22.606666,102.78919 C 21.706246,102.96928 20.969538,103.35026 20.969538,103.63582 C 20.969538,103.94058 21.699751,103.99064 22.737467,103.75703 C 23.709827,103.53813 25.30721,103.30618 26.287205,103.24158 z"
     id="path2713" />
  <path
     style="fill:#ffffff;fill-opacity:1"
     d="M 21.714544,101.75667 C 21.956965,100.76891 23.46871,96.34177 23.943581,95.228936 C 24.563798,93.775493 23.426466,94.095405 22.620671,95.601047 C 21.934091,96.883932 19.047693,98.520214 18.47735,97.949871 C 18.322585,97.795106 19.444069,96.387093 20.969538,94.820952 C 22.495006,93.254812 23.669839,91.919556 23.580278,91.853716 C 22.635941,91.1595 18.540743,89.971397 18.242756,90.305188 C 18.028714,90.544949 17.575517,91.889873 17.235651,93.293908 C 15.859917,98.977268 16.8792,102.43665 19.9295,102.43665 C 20.819489,102.43665 21.622758,102.13066 21.714544,101.75667 z"
     id="path2711" />
  <path
     style="fill:#ffffff;fill-opacity:1"
     d="M 37.28888,101.34869 C 37.832858,100.99714 37.878189,100.81859 37.424874,100.81304 C 37.05089,100.80846 36.744902,100.43753 36.744902,99.988744 C 36.744902,99.021642 36.113405,98.933909 35.264272,99.783041 C 34.553201,100.49411 34.944865,101.89648 35.85114,101.88434 C 36.193115,101.87976 36.840098,101.63871 37.28888,101.34869 z"
     id="path2709" />
  <path
     style="fill:#ffffff;fill-opacity:1"
     d="M 32.018482,97.059169 C 41.701674,89.695384 43.414436,78.043539 34.730707,78.608026 L 32.183625,78.773599 L 33.648296,80.348972 C 35.394869,82.227552 35.489012,82.853435 34.025012,82.853435 C 33.426636,82.853435 32.937055,83.179822 32.937055,83.578739 C 32.937055,84.853651 33.634768,85.058839 34.698014,84.096614 C 35.632086,83.251291 35.871356,83.239767 37.19006,83.976592 C 38.105631,84.488167 38.712919,85.342322 38.820952,86.270456 C 39.028123,88.050309 38.257818,88.189403 37.18038,86.566696 C 36.405967,85.400367 36.367234,85.420877 34.355258,88.062636 C 33.23329,89.5358 31.492827,91.166738 30.487563,91.686943 C 29.343813,92.278811 28.104569,93.652932 27.176122,95.358795 C 26.360093,96.858109 25.510494,98.084821 25.288123,98.084821 C 25.065753,98.084821 24.635405,98.797406 24.331794,99.668344 L 23.779775,101.25187 L 26.2487,100.41062 C 27.606609,99.947935 30.203011,98.439781 32.018482,97.059169 z"
     id="path2707" />
  <path
     style="fill:#ffffff;fill-opacity:1"
     d="M 46.843479,97.282655 C 50.668581,95.345525 54.06145,93.496382 54.383188,93.173449 C 55.272906,92.280429 52.613474,90.495673 50.371553,90.481224 C 48.911878,90.471816 48.639889,90.614189 49.147602,91.121901 C 49.989091,91.963391 49.989091,94.414645 49.147602,95.256135 C 48.204856,96.19888 45.426969,96.057997 44.267434,95.008631 C 42.954,93.81999 42.975531,90.906626 44.306652,89.701978 C 45.193405,88.899478 45.666055,88.853827 47.62543,89.381432 C 48.882051,89.719805 50.014544,89.892308 50.142081,89.764771 C 50.377716,89.529135 47.983234,87.633255 45.368564,85.985243 L 43.928633,85.077662 L 43.563284,87.093422 C 43.054622,89.899896 41.021262,94.200542 39.165204,96.395555 C 37.397933,98.485568 36.632166,100.93897 38.136874,99.690175 C 38.611775,99.296042 39.484667,98.024192 40.076634,96.863841 C 40.9779,95.097214 41.391649,94.781663 42.620772,94.923526 C 44.362544,95.124559 44.8903,96.968013 43.529419,98.097443 C 42.785182,98.715105 42.567761,98.707594 42.151553,98.049842 C 41.879749,97.620298 41.682011,96.901668 41.712136,96.452887 C 41.749054,95.902914 41.849896,95.957059 42.02148,96.618984 C 42.161494,97.15912 42.56148,97.505906 42.91034,97.38962 C 43.860968,97.072744 43.674102,95.676753 42.654781,95.48045 C 42.071177,95.368058 41.275528,96.184724 40.342874,97.853423 C 39.560741,99.252811 38.920814,100.48933 38.920814,100.60124 C 38.920814,101.16036 40.457446,100.51671 46.843479,97.282655 z"
     id="path2705" />
  <path
     style="fill:#ffffff;fill-opacity:1"
     d="M 27.060441,93.895522 C 27.839717,92.239887 28.620758,91.450203 29.894901,91.029698 C 30.984131,90.67022 32.312726,89.514251 33.384873,87.993184 C 34.33703,86.642349 35.644231,85.34174 36.289765,85.102941 C 37.280326,84.736508 37.324846,84.61557 36.575091,84.327861 C 36.012484,84.111969 35.390886,84.409321 34.879975,85.138749 C 34.234312,86.060562 33.917233,86.161069 33.291939,85.642121 C 31.958334,84.535327 31.781042,82.769378 32.972257,82.457868 C 34.343894,82.099177 34.315101,81.386886 32.910951,80.941226 C 31.418932,80.467677 30.525553,81.310957 29.739391,83.934931 C 28.869056,86.839851 28.138519,86.694499 27.935063,83.57593 C 27.843874,82.178174 27.492332,80.94351 27.153859,80.83223 C 26.815386,80.720951 25.754218,81.620081 24.795709,82.830298 C 23.8372,84.040515 23.417924,84.890644 23.863985,84.719474 C 24.748546,84.380036 28.567601,86.604366 28.578497,87.465344 C 28.582201,87.757985 27.600679,88.897387 26.397338,89.99735 C 24.406668,91.817001 24.265389,92.120064 24.830058,93.359378 C 25.32541,94.446557 25.272797,95.078035 24.569382,96.488063 L 23.688093,98.254649 L 24.836426,97.217773 C 25.46801,96.647491 26.468817,95.152479 27.060441,93.895522 z"
     id="path2703" />
  <path
     style="fill:#ffffff;fill-opacity:1"
     d="M 16.027172,95.36493 C 16.007454,94.826906 15.83802,94.919554 15.529757,95.636919 C 14.887144,97.132361 14.887144,97.991238 15.529757,96.996865 C 15.819782,96.548083 16.043619,95.813712 16.027172,95.36493 z"
     id="path2701" />
  <path
     style="fill:#ffffff;fill-opacity:1"
     d="M 21.53145,95.636919 C 22.269633,94.630557 22.258089,94.604954 21.377521,95.295543 C 20.853942,95.706162 20.42556,96.297738 20.42556,96.610157 C 20.42556,96.922575 20.494827,97.076195 20.579488,96.951533 C 20.664149,96.826871 21.092531,96.235295 21.53145,95.636919 z"
     id="path2699" />
  <path
     style="fill:#ffffff;fill-opacity:1"
     d="M 48.690732,94.575095 C 49.653756,93.414722 49.153799,91.854826 47.754901,91.655244 C 46.657612,91.498694 46.264513,92.010369 46.472089,93.325013 C 46.507519,93.549404 46.291717,93.732996 45.992529,93.732996 C 44.947473,93.732996 45.43002,91.460076 46.536507,91.170723 C 47.923408,90.80804 47.954944,89.92515 46.580997,89.92515 C 44.613854,89.92515 43.816617,90.560564 43.816617,92.128416 C 43.816617,94.665044 47.20463,96.365739 48.690732,94.575095 z"
     id="path2697" />
  <path
     style="fill:#ffffff;fill-opacity:1"
     d="M 27.061727,88.42921 C 27.427081,87.992417 27.435945,87.749237 27.086511,87.749237 C 26.787323,87.749237 26.237796,88.116423 25.86534,88.565204 C 25.492885,89.013986 24.93066,89.381172 24.615954,89.381172 C 24.301247,89.381172 24.637208,88.726335 25.362534,87.92598 C 26.449784,86.726261 26.27543,86.789995 24.369401,88.289012 C 23.097852,89.289034 22.057494,90.237619 22.057494,90.396977 C 22.057494,90.556335 22.351242,90.392971 22.710268,90.033945 C 23.707861,89.036352 24.467498,89.257227 23.620041,90.298474 C 22.9962,91.06497 23.170987,91.042612 24.683213,90.162479 C 25.678576,89.583166 26.748908,88.803195 27.061727,88.42921 z"
     id="path2695" />
  <path
     style="fill:#ffffff;fill-opacity:1"
     d="M 22.880023,83.932452 C 25.150114,80.839969 25.281648,80.201904 23.333092,81.734639 C 21.508373,83.169963 19.337604,86.088013 19.337604,87.105561 C 19.337604,88.211075 20.510352,87.160589 22.880023,83.932452 z"
     id="path2693" />
  <path
     style="fill:#ffffff;fill-opacity:1"
     d="M 24.777384,85.168122 C 24.777384,85.018528 24.410199,85.200869 23.961417,85.573325 C 23.512635,85.945781 23.14545,86.372912 23.14545,86.522506 C 23.14545,86.6721 23.512635,86.489759 23.961417,86.117303 C 24.410199,85.744847 24.777384,85.317716 24.777384,85.168122 z"
     id="path2691" />
  <path
     style="fill:#ffffff;fill-opacity:1"
     d="M 30.920365,80.420723 C 32.242969,79.453612 32.073128,79.044341 30.35316,79.053918 C 28.504381,79.064212 27.117101,79.834376 27.983176,80.36964 C 28.314306,80.57429 28.603854,81.645246 28.626616,82.749544 L 28.668,84.757358 L 29.329815,82.928594 C 29.693814,81.922774 30.409561,80.794232 30.920365,80.420723 z"
     id="path2689" />
  <path
     style="fill:#ffffff;fill-opacity:1"
     d="M 30.171834,78.151484 C 30.711329,77.690073 27.690733,78.025771 26.953297,78.50918 C 26.379223,78.8855 26.701748,78.940498 28.041253,78.694702 C 29.088411,78.502551 30.047172,78.258102 30.171834,78.151484 z"
     id="path2687" />
  <path
     style="fill:#ffffff;fill-opacity:1"
     d="M 36.052796,77.560638 C 34.924168,77.44288 33.210637,77.444854 32.24495,77.565026 C 31.279262,77.685197 32.202685,77.781544 34.297001,77.779131 C 36.391316,77.776718 37.181424,77.678396 36.052796,77.560638 z"
     id="path2683" />
</svg>
