<?xml version="1.0" encoding="UTF-8" standalone="no"?>
<!-- Created with Inkscape (http://www.inkscape.org/) -->
<svg
   xmlns:ns="http://creativecommons.org/ns#"
   xmlns:dc="http://purl.org/dc/elements/1.1/"
   xmlns:cc="http://web.resource.org/cc/"
   xmlns:rdf="http://www.w3.org/1999/02/22-rdf-syntax-ns#"
   xmlns:svg="http://www.w3.org/2000/svg"
   xmlns="http://www.w3.org/2000/svg"
   xmlns:sodipodi="http://sodipodi.sourceforge.net/DTD/sodipodi-0.dtd"
   xmlns:inkscape="http://www.inkscape.org/namespaces/inkscape"
   id="svg2440"
   sodipodi:version="0.32"
   inkscape:version="0.45.1"
   width="53.149609"
   height="79.763382"
   version="1.0"
   sodipodi:docname="minerva.svg"
   inkscape:output_extension="org.inkscape.output.svg.inkscape"
   sodipodi:docbase="/auto/papillon/u/papillon/0/user/vhelano/Documents/devel/coppetex">
  <metadata
     id="metadata2445">
    <rdf:RDF>
      <ns:Work
         rdf:about="">
        <dc:format>image/svg+xml</dc:format>
        <dc:type
           rdf:resource="http://purl.org/dc/dcmitype/StillImage" />
      </ns:Work>
      <cc:Work
         rdf:about="">
        <dc:format>image/svg+xml</dc:format>
        <dc:type
           rdf:resource="http://purl.org/dc/dcmitype/StillImage" />
      </cc:Work>
    </rdf:RDF>
  </metadata>
  <defs
     id="defs2443">
    <inkscape:perspective
       sodipodi:type="inkscape:persp3d"
       inkscape:vp_x="0 : 526.18109 : 1"
       inkscape:vp_y="0 : 1000 : 0"
       inkscape:vp_z="744.09448 : 526.18109 : 1"
       inkscape:persp3d-origin="372.04724 : 350.78739 : 1"
       id="perspective2447" />
  </defs>
  <sodipodi:namedview
     inkscape:window-height="874"
     inkscape:window-width="898"
     inkscape:pageshadow="2"
     inkscape:pageopacity="0.0"
     guidetolerance="10.0"
     gridtolerance="10.0"
     objecttolerance="10.0"
     borderopacity="1.0"
     bordercolor="#666666"
     pagecolor="#ffffff"
     id="base"
     showgrid="false"
     inkscape:zoom="3.1876035"
     inkscape:cx="54.27851"
     inkscape:cy="45.157382"
     inkscape:window-x="0"
     inkscape:window-y="49"
     inkscape:current-layer="svg2440" />
  <path
     style="fill:#000000;fill-opacity:1"
     d="M 21.907822,79.311164 C 20.770654,79.091014 19.558943,78.629584 19.21513,78.285764 C 18.871317,77.941954 18.056972,77.660654 17.405474,77.660654 C 16.753975,77.660654 15.916195,77.293464 15.543739,76.844684 C 15.171283,76.395904 14.537947,76.028714 14.136326,76.028714 C 13.734704,76.028714 13.155799,75.561014 12.849869,74.989384 C 12.543939,74.417744 11.478635,73.446344 10.482527,72.830724 C 7.5475378,71.016794 4.0538567,66.504634 4.0045472,64.464274 C 3.9811132,63.494614 3.6936066,62.527854 3.3656444,62.315924 C 2.9410315,62.041534 2.9601131,61.739824 3.43192,61.268024 C 3.9526974,60.747244 4.3101356,60.800604 5.1021408,61.517354 C 6.3919608,62.684634 7.1740658,62.673194 7.6317978,61.480364 C 7.8833418,60.824844 7.5229028,60.132924 6.4660468,59.242504 C 5.3556658,58.306984 5.2344878,58.062044 6.0241228,58.349204 C 8.6718528,59.312084 9.0160018,59.301614 9.0160018,58.258174 C 9.0160018,57.680844 8.2785058,56.788404 7.3464068,56.237804 C 6.4281288,55.695364 5.8191638,55.109194 5.9931508,54.935204 C 6.1671388,54.761224 7.0576468,55.172004 7.9720568,55.848054 C 9.5294858,56.999514 11.191914,57.079464 11.191914,56.002914 C 11.191914,55.298544 9.5743798,54.002604 7.1120788,52.734214 L 4.9361658,51.613354 L 6.9745778,51.778244 C 8.4059578,51.894034 9.3491868,52.370544 10.141934,53.378354 C 10.762854,54.167724 11.497901,54.813574 11.775374,54.813574 C 12.542088,54.813574 12.379044,53.003614 11.443374,51.128014 C 10.575492,49.388304 8.8971558,48.724184 6.2961118,49.091224 C 5.5481418,49.196774 4.4958155,49.303524 3.9576085,49.328464 C 3.369857,49.355684 2.6041758,50.211104 2.0403843,51.470374 C 1.2407903,53.256324 0.99434627,53.452004 0.37701517,52.791154 C -0.23178283,52.139434 -0.14265493,51.794884 0.93429407,50.636854 C 1.6393841,49.878684 2.7936602,49.035484 3.4993515,48.763084 C 4.5359632,48.362944 4.6583238,48.118274 4.1363548,47.489334 C 3.7117853,46.977764 3.6636492,46.401074 3.9959518,45.807284 C 4.6336838,44.667724 3.8704343,40.384224 2.7156037,38.621734 C 1.9438209,37.443844 1.9419602,37.222524 2.6968272,36.388404 C 3.6274274,35.360104 5.3936728,31.422514 4.9243278,31.422514 C 4.7601918,31.422514 4.014897,31.822864 3.2681162,32.312164 C 1.4458812,33.506144 1.0984391,32.972484 2.0838239,30.493124 C 2.5346614,29.358754 3.0822754,26.8395 3.300743,24.894779 C 5.1626338,8.3208953 15.640545,-1.2197687 30.503136,0.12563226 C 36.428819,0.66204126 36.308555,0.56261726 34.69408,3.5903083 L 33.307707,6.1902313 L 34.625312,7.9779243 C 36.056781,9.9201073 40.826339,13.640849 48.354108,18.68779 L 53.149607,21.902899 L 51.386596,23.382091 C 50.416941,24.195647 48.320745,25.541993 46.728385,26.373971 C 43.381932,28.122424 43.193894,28.857604 44.856867,33.691114 C 45.979819,36.955034 45.642282,38.494234 43.803568,38.494234 C 42.916137,38.494234 42.742642,38.876744 42.742642,40.833334 C 42.742642,42.119844 42.491631,43.423454 42.18484,43.730244 C 41.878049,44.037034 41.525361,45.091454 41.401089,46.073404 C 41.11984,48.295704 41.145395,48.272554 38.594213,48.616324 C 34.652092,49.147534 33.992163,49.405614 33.555153,50.586964 C 33.143128,51.700774 33.429223,51.846094 38.6105,53.154734 C 45.357666,54.858884 51.151536,57.916944 51.688808,60.057604 C 52.089034,61.652244 51.133345,64.534414 49.892599,65.474614 C 49.458961,65.803214 49.285156,66.364914 49.506365,66.722834 C 49.9018,67.362664 43.1726,74.396784 42.165074,74.396784 C 41.904306,74.396784 40.834186,75.253544 39.787028,76.300704 C 38.637082,77.450654 37.350083,78.204634 36.537131,78.204634 C 35.796845,78.204634 35.030201,78.465064 34.833478,78.783364 C 34.623926,79.122434 32.919554,79.311634 30.717994,79.240224 C 28.651201,79.173194 26.798591,79.279954 26.601082,79.477454 C 26.172411,79.906124 24.714056,79.854454 21.907822,79.311164 z "
     id="path2909" />
  <path
     style="fill:#ffffff;fill-opacity:1"
     d="M 21.130647,77.590194 C 20.802677,77.262224 20.223269,77.186124 19.843074,77.421104 C 19.332445,77.736684 19.42667,77.948114 20.20366,78.230184 C 21.491547,78.697734 21.933242,78.392784 21.130647,77.590194 z "
     id="path2907" />
  <path
     style="fill:#ffffff;fill-opacity:1"
     d="M 26.055337,78.340624 C 26.18746,78.116234 26.073651,77.344694 25.80243,76.626104 L 25.3093,75.319564 L 23.979142,76.569184 C 23.247556,77.256474 22.778282,78.028004 22.936312,78.283704 C 23.290373,78.856584 25.725371,78.901024 26.055337,78.340624 z "
     id="path2905" />
  <path
     style="fill:#ffffff;fill-opacity:1"
     d="M 32.407059,78.204634 C 31.352417,77.523064 30.775125,77.523064 30.775125,78.204634 C 30.775125,78.503814 31.325903,78.744864 31.999075,78.740284 C 32.98881,78.733544 33.066882,78.631034 32.407059,78.204634 z "
     id="path2903" />
  <path
     style="fill:#ffffff;fill-opacity:1"
     d="M 30.122351,77.551854 C 31.065822,76.608384 30.928175,75.842024 29.67464,75.059184 C 28.438318,74.287084 26.4233,75.000954 26.4233,76.211044 C 26.4233,77.166174 27.556735,78.204634 28.599213,78.204634 C 29.077913,78.204634 29.763326,77.910884 30.122351,77.551854 z "
     id="path2901" />
  <path
     style="fill:#ffffff;fill-opacity:1"
     d="M 35.368093,76.451654 C 36.529399,74.793654 36.43051,74.228734 34.850716,73.496004 C 33.689841,72.957574 33.495015,73.000564 33.495015,73.795194 C 33.495015,74.305584 33.217721,75.000464 32.878806,75.339374 C 32.099556,76.118634 32.657754,77.660654 33.719086,77.660654 C 34.160293,77.660654 34.902346,77.116604 35.368093,76.451654 z "
     id="path2899" />
  <path
     style="fill:#ffffff;fill-opacity:1"
     d="M 19.049257,76.621784 C 19.748892,75.489754 18.706273,74.401634 17.254953,74.749164 C 15.254084,75.228304 15.119113,75.460834 16.328537,76.345184 C 17.5385,77.229934 18.60631,77.338484 19.049257,76.621784 z "
     id="path2897" />
  <path
     style="fill:#ffffff;fill-opacity:1"
     d="M 37.982834,76.293254 C 37.782435,75.502634 36.616198,75.640804 36.333583,76.488654 C 36.174706,76.965284 36.443504,77.152424 37.104218,77.025184 C 37.662254,76.917714 38.057631,76.588344 37.982834,76.293254 z "
     id="path2895" />
  <path
     style="fill:#ffffff;fill-opacity:1"
     d="M 23.06299,76.099834 C 23.575279,75.775024 23.670483,75.046444 23.393538,73.570194 C 23.056238,71.772234 22.916542,71.617134 22.342054,72.402794 C 21.977675,72.901114 21.155756,73.308824 20.515566,73.308824 C 19.757348,73.308824 19.351585,73.650164 19.351585,74.287984 C 19.351585,76.180684 21.376418,77.169174 23.06299,76.099834 z "
     id="path2893" />
  <path
     style="fill:#ffffff;fill-opacity:1"
     d="M 27.76404,73.434704 C 27.944464,72.964534 27.893427,72.437874 27.650624,72.264364 C 27.407821,72.090854 26.926517,71.336904 26.581059,70.588934 C 26.134716,69.622534 25.942301,69.498934 25.916139,70.161814 C 25.89589,70.674864 25.389742,71.356654 24.791366,71.676894 C 23.494361,72.371034 23.424985,72.952694 24.509808,74.037514 C 25.461476,74.989184 27.298083,74.648974 27.76404,73.434704 z "
     id="path2891" />
  <path
     style="fill:#ffffff;fill-opacity:1"
     d="M 31.898843,74.377644 C 33.247149,73.656054 33.235003,72.646484 31.863081,71.404904 C 31.176433,70.783494 30.775125,70.666404 30.775125,71.087464 C 30.775125,71.454394 30.39949,72.130234 29.940381,72.589344 C 29.297388,73.232344 29.250209,73.598284 29.734999,74.182424 C 30.488285,75.090074 30.556195,75.096204 31.898843,74.377644 z "
     id="path2889" />
  <path
     style="fill:#ffffff;fill-opacity:1"
     d="M 40.001662,73.892214 C 40.667108,72.648814 40.20896,71.132914 39.167725,71.132914 C 38.34328,71.132914 37.302862,72.782154 37.302862,74.089034 C 37.302862,75.300974 39.326707,75.153384 40.001662,73.892214 z "
     id="path2887" />
  <path
     style="fill:#ffffff;fill-opacity:1"
     d="M 13.539643,73.444824 C 14.042912,72.574884 13.103805,71.167674 12.336468,71.641914 C 11.9184,71.900294 11.727495,72.502324 11.911542,72.981944 C 12.26142,73.893704 13.136093,74.142384 13.539643,73.444824 z "
     id="path2885" />
  <path
     style="fill:#ffffff;fill-opacity:1"
     d="M 17.957111,73.364694 C 18.123028,73.096234 18.103816,72.101774 17.914418,71.154784 C 17.67134,69.939394 17.400064,69.602974 16.99208,70.010964 C 16.674193,70.328844 15.999671,70.588934 15.493143,70.588934 C 14.311266,70.588934 13.708588,72.136524 14.513005,73.105784 C 15.208102,73.943324 17.493325,74.115114 17.957111,73.364694 z "
     id="path2883" />
  <path
     style="fill:#ffffff;fill-opacity:1"
     d="M 43.18846,72.351304 C 43.320485,71.425924 43.091551,71.132914 42.236499,71.132914 C 41.389753,71.132914 41.110708,71.479884 41.110708,72.532744 C 41.110708,74.318264 42.930505,74.159354 43.18846,72.351304 z "
     id="path2881" />
  <path
     style="fill:#ffffff;fill-opacity:1"
     d="M 37.150837,71.633934 C 37.643345,70.657004 37.653761,70.261894 37.191174,70.103734 C 36.406239,69.835364 34.477895,72.154744 34.907727,72.850224 C 35.398261,73.643924 36.415636,73.092274 37.150837,71.633934 z "
     id="path2879" />
  <path
     style="fill:#ffffff;fill-opacity:1"
     d="M 21.968318,70.452944 C 22.086246,69.028084 21.917721,68.413024 21.409385,68.413024 C 20.357069,68.413024 18.263629,69.990184 18.263629,70.782974 C 18.263629,71.862424 19.516213,72.820104 20.705177,72.649704 C 21.541779,72.529794 21.839246,72.012464 21.968318,70.452944 z "
     id="path2877" />
  <path
     style="fill:#ffffff;fill-opacity:1"
     d="M 30.126842,70.456824 C 30.22594,69.942244 29.962737,69.029694 29.541944,68.428934 C 28.786379,67.350214 28.768102,67.353004 28.071781,68.654104 C 27.683982,69.378704 27.520875,70.373354 27.709319,70.864434 C 28.14278,71.994014 29.887457,71.699844 30.126842,70.456824 z "
     id="path2875" />
  <path
     style="fill:#ffffff;fill-opacity:1"
     d="M 35.126949,69.548444 C 35.126949,68.997234 34.791104,68.267514 34.380626,67.926844 C 33.788497,67.435424 33.4967,67.639654 32.968285,68.915364 C 32.601976,69.799714 32.463096,70.783494 32.659666,71.101554 C 33.198435,71.973304 35.126949,70.759344 35.126949,69.548444 z "
     id="path2873" />
  <path
     style="fill:#ffffff;fill-opacity:1"
     d="M 9.6931188,69.772974 C 9.4289928,68.391284 8.2798758,67.947644 7.6413298,68.980824 C 7.2186138,69.664804 8.3359168,71.132914 9.2791638,71.132914 C 9.7046908,71.132914 9.8572678,70.631664 9.6931188,69.772974 z "
     id="path2871" />
  <path
     style="fill:#ffffff;fill-opacity:1"
     d="M 13.367827,68.860964 C 13.367827,67.521114 13.170832,67.278714 12.199431,67.423224 C 11.556814,67.518834 10.761246,68.039784 10.431503,68.580884 C 9.9554498,69.362074 10.038927,69.718504 10.836805,70.311444 C 12.265382,71.373094 13.367827,70.741304 13.367827,68.860964 z "
     id="path2869" />
  <path
     style="fill:#ffffff;fill-opacity:1"
     d="M 25.071558,70.575664 C 25.49538,69.889904 24.860054,66.781094 24.296087,66.781094 C 23.578039,66.781094 22.458685,69.395784 22.798088,70.280254 C 23.167068,71.241794 24.548897,71.421344 25.071558,70.575664 z "
     id="path2867" />
  <path
     style="fill:#ffffff;fill-opacity:1"
     d="M 45.353737,70.480144 C 46.209044,69.624834 46.190085,68.413024 45.321396,68.413024 C 44.513299,68.413024 43.202119,70.323114 43.681288,70.802284 C 44.17346,71.294444 44.626735,71.207144 45.353737,70.480144 z "
     id="path2865" />
  <path
     style="fill:#ffffff;fill-opacity:1"
     d="M 41.0146,69.319904 C 41.13319,68.708434 40.823099,68.413024 40.062639,68.413024 C 39.442325,68.413024 38.934796,68.739414 38.934796,69.138324 C 38.934796,70.804394 40.696863,70.958234 41.0146,69.319904 z "
     id="path2863" />
  <path
     style="fill:#ffffff;fill-opacity:1"
     d="M 16.84534,69.051404 C 16.998159,68.804144 16.991492,68.098204 16.830525,67.482674 C 16.412908,65.885694 14.455783,66.480574 14.455783,68.204484 C 14.455783,69.125194 14.761823,69.500984 15.511635,69.500984 C 16.092354,69.500984 16.692521,69.298674 16.84534,69.051404 z "
     id="path2861" />
  <path
     style="fill:#ffffff;fill-opacity:1"
     d="M 43.558609,68.413024 C 43.558609,68.014104 43.252622,67.585724 42.878637,67.461064 C 42.47414,67.326234 42.198664,67.711894 42.198664,68.413024 C 42.198664,69.114154 42.47414,69.499814 42.878637,69.364984 C 43.252622,69.240324 43.558609,68.811944 43.558609,68.413024 z "
     id="path2859" />
  <path
     style="fill:#ffffff;fill-opacity:1"
     d="M 32.362459,67.952384 C 33.164034,66.454624 32.03101,65.537694 30.814312,66.699494 C 29.777922,67.689124 29.930607,68.957004 31.086174,68.957004 C 31.49242,68.957004 32.066748,68.504924 32.362459,67.952384 z "
     id="path2857" />
  <path
     style="fill:#ffffff;fill-opacity:1"
     d="M 38.108922,68.073224 C 39.041151,67.141004 39.049476,64.683834 38.118829,65.149154 C 37.819641,65.298754 37.645541,65.633214 37.731941,65.892414 C 37.818341,66.151614 37.50671,66.947184 37.039428,67.660344 C 36.073993,69.133784 36.776976,69.405174 38.108922,68.073224 z "
     id="path2855" />
  <path
     style="fill:#ffffff;fill-opacity:1"
     d="M 7.3840678,67.564954 C 7.3840678,67.433014 7.1392778,67.325064 6.8400898,67.325064 C 6.5409018,67.325064 6.2961118,67.584304 6.2961118,67.901154 C 6.2961118,68.217994 6.5409018,68.325944 6.8400898,68.141034 C 7.1392778,67.956124 7.3840678,67.696884 7.3840678,67.564954 z "
     id="path2853" />
  <path
     style="fill:#ffffff;fill-opacity:1"
     d="M 19.895563,67.307994 C 19.895563,65.992644 18.339721,65.233814 17.715079,66.244514 C 17.075727,67.279004 17.677499,68.413024 18.865807,68.413024 C 19.538214,68.413024 19.895563,68.029554 19.895563,67.307994 z "
     id="path2851" />
  <path
     style="fill:#ffffff;fill-opacity:1"
     d="M 27.725046,67.552564 C 28.476433,65.594484 27.929306,65.204964 26.232833,66.490204 C 25.679294,66.909564 25.387753,67.513754 25.584964,67.832854 C 26.118241,68.695714 27.348194,68.534624 27.725046,67.552564 z "
     id="path2849" />
  <path
     style="fill:#ffffff;fill-opacity:1"
     d="M 48.182423,67.260864 C 48.182423,66.961674 47.937633,66.868174 47.638445,67.053084 C 47.339257,67.237984 47.094467,67.634064 47.094467,67.933254 C 47.094467,68.232444 47.339257,68.325944 47.638445,68.141034 C 47.937633,67.956124 48.182423,67.560054 48.182423,67.260864 z "
     id="path2847" />
  <path
     style="fill:#ffffff;fill-opacity:1"
     d="M 22.848587,67.014224 C 23.822269,66.040544 23.873965,65.716594 23.220282,64.685004 C 22.856438,64.110824 22.49924,64.085114 21.596677,64.568154 C 20.30132,65.261404 20.115114,66.239074 21.092315,67.216274 C 21.904712,68.028674 21.824967,68.037844 22.848587,67.014224 z "
     id="path2845" />
  <path
     style="fill:#ffffff;fill-opacity:1"
     d="M 36.758884,66.237114 C 36.758884,64.656944 35.896923,64.492454 35.23455,65.946204 C 34.788559,66.925044 34.802729,67.311994 35.291,67.487664 C 36.24749,67.831814 36.758884,67.396134 36.758884,66.237114 z "
     id="path2843" />
  <path
     style="fill:#ffffff;fill-opacity:1"
     d="M 5.7521338,64.877164 C 5.7521338,63.530824 5.5073428,62.429264 5.2081548,62.429264 C 4.6073698,62.429264 4.4491514,66.384734 5.0268298,66.962414 C 5.6695518,67.605144 5.7521338,67.367714 5.7521338,64.877164 z "
     id="path2841" />
  <path
     style="fill:#ffffff;fill-opacity:1"
     d="M 10.103958,65.965124 C 10.103958,64.981614 9.8116958,64.605174 9.0481058,64.605174 C 8.4673868,64.605174 7.8337208,64.861694 7.6399568,65.175204 C 7.0572338,66.118074 7.8202008,67.325064 8.9989288,67.325064 C 9.8149748,67.325064 10.103958,66.969424 10.103958,65.965124 z "
     id="path2839" />
  <path
     style="fill:#ffffff;fill-opacity:1"
     d="M 41.479037,66.454204 C 41.814456,65.580114 40.695072,64.461654 39.947345,64.923774 C 39.727706,65.059514 39.584519,65.655334 39.629149,66.247824 C 39.726395,67.538794 41.007975,67.681764 41.479037,66.454204 z "
     id="path2837" />
  <path
     style="fill:#ffffff;fill-opacity:1"
     d="M 45.108586,66.526524 C 45.492226,65.526774 44.472304,64.833834 43.721803,65.584334 C 43.141155,66.164984 43.558796,67.325064 44.348481,67.325064 C 44.598002,67.325064 44.940049,66.965724 45.108586,66.526524 z "
     id="path2835" />
  <path
     style="fill:#ffffff;fill-opacity:1"
     d="M 47.054251,64.530034 C 46.28607,63.094674 45.263993,63.249864 45.663649,64.741174 C 45.844052,65.414344 46.002783,66.332304 46.016383,66.781094 C 46.035582,67.414584 46.215004,67.367364 46.818701,66.569954 C 47.378155,65.830974 47.444233,65.258724 47.054251,64.530034 z "
     id="path2833" />
  <path
     style="fill:#ffffff;fill-opacity:1"
     d="M 13.269666,65.242544 C 13.400319,64.354624 13.16387,64.061204 12.317705,64.061204 C 11.588681,64.061204 11.191914,64.412684 11.191914,65.058494 C 11.191914,67.126494 12.969285,67.283934 13.269666,65.242544 z "
     id="path2831" />
  <path
     style="fill:#ffffff;fill-opacity:1"
     d="M 30.525505,65.656944 C 30.722716,65.337844 30.432725,64.746734 29.881082,64.343364 C 28.779524,63.537884 27.939518,64.214644 28.435752,65.507814 C 28.77058,66.380354 30.023164,66.469744 30.525505,65.656944 z "
     id="path2829" />
  <path
     style="fill:#ffffff;fill-opacity:1"
     d="M 34.582971,64.605174 C 34.582971,63.247244 33.267026,62.886324 32.543001,64.045674 C 32.122526,64.718954 32.11328,65.181764 32.512332,65.580814 C 33.307594,66.376074 34.582971,65.775154 34.582971,64.605174 z "
     id="path2827" />
  <path
     style="fill:#ffffff;fill-opacity:1"
     d="M 16.533535,64.191634 C 16.664151,63.276134 16.43548,62.973244 15.613677,62.973244 C 14.31166,62.973244 13.693665,63.796074 14.133945,64.943414 C 14.599265,66.156024 16.330665,65.613584 16.533535,64.191634 z "
     id="path2825" />
  <path
     style="fill:#ffffff;fill-opacity:1"
     d="M 26.57261,65.362494 C 27.04138,64.893724 25.748866,62.973244 24.964607,62.973244 C 23.931545,62.973244 23.547727,64.034124 24.267164,64.900994 C 24.949993,65.723754 26.00097,65.934134 26.57261,65.362494 z "
     id="path2823" />
  <path
     style="fill:#ffffff;fill-opacity:1"
     d="M 43.28662,64.301084 C 43.28662,63.500024 42.63852,63.258694 42.054819,63.842394 C 41.564458,64.332754 42.239663,65.732004 42.799643,65.385914 C 43.067481,65.220384 43.28662,64.732204 43.28662,64.301084 z "
     id="path2821" />
  <path
     style="fill:#ffffff;fill-opacity:1"
     d="M 19.195137,64.713384 C 20.032279,64.181384 19.471377,61.885284 18.504277,61.885284 C 17.487703,61.885284 17.046497,62.797244 17.449207,64.066064 C 17.820407,65.235614 18.169618,65.365084 19.195137,64.713384 z "
     id="path2819" />
  <path
     style="fill:#ffffff;fill-opacity:1"
     d="M 49.270379,63.517224 C 49.270379,62.361544 48.445218,61.658664 47.658958,62.144594 C 47.330154,62.347814 47.359734,62.960274 47.738503,63.791574 C 48.407211,65.259234 49.270379,65.104644 49.270379,63.517224 z "
     id="path2817" />
  <path
     style="fill:#ffffff;fill-opacity:1"
     d="M 22.615454,61.818684 C 22.615454,61.179224 22.230416,60.797334 21.585697,60.797334 C 20.309592,60.797334 19.66128,62.307484 20.502331,63.320894 C 21.291209,64.271434 22.615454,63.330034 22.615454,61.818684 z "
     id="path2815" />
  <path
     style="fill:#ffffff;fill-opacity:1"
     d="M 32.13507,62.965794 C 32.13507,62.521114 31.584292,62.079054 30.911119,61.983444 C 29.720457,61.814344 29.212019,62.860744 30.068626,63.717354 C 30.702378,64.351104 32.13507,63.830044 32.13507,62.965794 z "
     id="path2813" />
  <path
     style="fill:#ffffff;fill-opacity:1"
     d="M 38.0103,63.331904 C 38.164223,62.930784 38.068018,62.257604 37.796511,61.835964 C 37.375695,61.182434 37.223832,61.189704 36.767214,61.885284 C 36.472607,62.334074 36.227817,63.007244 36.223235,63.381224 C 36.212072,64.292494 37.65699,64.252614 38.0103,63.331904 z "
     id="path2811" />
  <path
     style="fill:#ffffff;fill-opacity:1"
     d="M 40.022752,62.669144 C 40.022752,62.238024 39.777962,61.885284 39.478774,61.885284 C 39.179586,61.885284 38.934796,62.389314 38.934796,63.005354 C 38.934796,63.621384 39.179586,63.974124 39.478774,63.789214 C 39.777962,63.604304 40.022752,63.100274 40.022752,62.669144 z "
     id="path2809" />
  <path
     style="fill:#ffffff;fill-opacity:1"
     d="M 10.512196,62.837254 C 10.169477,61.807944 8.4720238,61.661604 8.4720238,62.661374 C 8.4720238,63.165984 8.9371228,63.517224 9.6053108,63.517224 C 10.270038,63.517224 10.644992,63.236084 10.512196,62.837254 z "
     id="path2807" />
  <path
     style="fill:#ffffff;fill-opacity:1"
     d="M 28.497175,62.285374 C 28.713671,61.161204 27.143315,60.403704 26.314505,61.232514 C 25.485695,62.061324 26.243196,63.631684 27.36737,63.415184 C 27.888418,63.314844 28.39683,62.806424 28.497175,62.285374 z "
     id="path2805" />
  <path
     style="fill:#ffffff;fill-opacity:1"
     d="M 41.229273,61.242284 C 40.888668,60.901674 40.812851,61.259364 41.015242,62.252024 C 41.247373,63.390554 41.384163,63.527344 41.542685,62.779464 C 41.660401,62.224114 41.519366,61.532374 41.229273,61.242284 z "
     id="path2803" />
  <path
     style="fill:#ffffff;fill-opacity:1"
     d="M 44.918555,62.397164 C 44.918555,61.781124 44.673765,61.428394 44.374577,61.613294 C 44.075389,61.798204 43.830599,62.302234 43.830599,62.733364 C 43.830599,63.164484 44.075389,63.517224 44.374577,63.517224 C 44.673765,63.517224 44.918555,63.013194 44.918555,62.397164 z "
     id="path2801" />
  <path
     style="fill:#ffffff;fill-opacity:1"
     d="M 13.367827,61.885284 C 13.367827,61.159984 13.005174,60.797334 12.27987,60.797334 C 11.231521,60.797334 10.805746,61.861774 11.554566,62.610594 C 12.303387,63.359414 13.367827,62.933634 13.367827,61.885284 z "
     id="path2799" />
  <path
     style="fill:#ffffff;fill-opacity:1"
     d="M 35.953278,60.814094 C 35.673489,60.361384 35.266406,60.450824 34.51611,61.129824 C 33.714735,61.855064 33.631742,62.177614 34.162131,62.505534 C 35.033836,63.044494 36.48487,61.674234 35.953278,60.814094 z "
     id="path2797" />
  <path
     style="fill:#ffffff;fill-opacity:1"
     d="M 16.531512,60.660014 C 16.674727,59.419664 16.538945,59.232794 15.715545,59.537034 C 14.43733,60.009324 13.939565,60.780694 14.30257,61.726664 C 14.790867,62.999144 16.347434,62.254264 16.531512,60.660014 z "
     id="path2795" />
  <path
     style="fill:#ffffff;fill-opacity:1"
     d="M 25.670595,61.010934 C 25.9039,60.081374 25.773164,59.435984 25.29122,59.138124 C 24.278801,58.512414 23.159432,59.561434 23.159432,61.135924 C 23.159432,63.007474 25.194925,62.906154 25.670595,61.010934 z "
     id="path2793" />
  <path
     style="fill:#ffffff;fill-opacity:1"
     d="M 50.902313,61.069324 C 50.902313,60.321354 50.677922,59.709374 50.403667,59.709374 C 49.766505,59.709374 49.356236,60.866984 49.6807,61.749294 C 50.113698,62.926734 50.902313,62.487774 50.902313,61.069324 z "
     id="path2791" />
  <path
     style="fill:#ffffff;fill-opacity:1"
     d="M 43.28662,61.101424 C 43.28662,60.284824 42.309998,59.416714 41.877679,59.849034 C 41.498267,60.228444 42.249418,61.885284 42.800842,61.885284 C 43.06802,61.885284 43.28662,61.532554 43.28662,61.101424 z "
     id="path2789" />
  <path
     style="fill:#ffffff;fill-opacity:1"
     d="M 46.740521,60.507914 C 46.571984,60.068724 46.215489,59.709374 45.948311,59.709374 C 45.390137,59.709374 45.291977,60.989424 45.810396,61.507844 C 46.390688,62.088134 47.067642,61.360384 46.740521,60.507914 z "
     id="path2787" />
  <path
     style="fill:#ffffff;fill-opacity:1"
     d="M 10.520166,59.395434 L 10.664383,57.805454 L 9.8594688,59.165394 C 8.8626108,60.849644 8.8106188,61.499414 9.6959748,61.208694 C 10.069959,61.085894 10.440845,60.269924 10.520166,59.395434 z "
     id="path2785" />
  <path
     style="fill:#ffffff;fill-opacity:1"
     d="M 19.795701,59.531434 C 19.931257,58.386364 19.738631,58.077444 18.889071,58.077444 C 17.589962,58.077444 17.137847,59.078494 17.829987,60.422404 C 18.526011,61.773854 19.587177,61.292874 19.795701,59.531434 z "
     id="path2783" />
  <path
     style="fill:#ffffff;fill-opacity:1"
     d="M 33.495015,60.772474 C 34.114428,60.353314 33.981748,60.296194 32.944216,60.535364 C 31.235123,60.929344 27.130509,59.172334 25.361851,57.289694 C 24.644591,56.526204 23.794424,55.911574 23.472592,55.923834 C 23.15076,55.936114 23.961127,56.916904 25.273408,58.103384 C 28.330874,60.867754 31.725627,61.969834 33.495015,60.772474 z "
     id="path2781" />
  <path
     style="fill:#ffffff;fill-opacity:1"
     d="M 39.296088,59.944794 C 39.476019,59.475904 39.345942,58.814974 39.007027,58.476054 C 38.557517,58.026554 38.390818,58.024404 38.390818,58.468134 C 38.390818,58.802684 38.242233,59.463624 38.060629,59.936874 C 37.878707,60.410954 38.008505,60.797334 38.349691,60.797334 C 38.690278,60.797334 39.116158,60.413694 39.296088,59.944794 z "
     id="path2779" />
  <path
     style="fill:#ffffff;fill-opacity:1"
     d="M 13.709551,57.884844 C 13.611569,57.242804 13.191962,56.717494 12.777091,56.717494 C 11.923999,56.717494 11.480627,58.259534 11.968312,59.530424 C 12.450324,60.786524 13.93784,59.380734 13.709551,57.884844 z "
     id="path2777" />
  <path
     style="fill:#ffffff;fill-opacity:1"
     d="M 44.918555,58.861304 C 44.918555,58.060244 44.270454,57.818914 43.686753,58.402614 C 43.196392,58.892974 43.871598,60.292224 44.431577,59.946134 C 44.699415,59.780604 44.918555,59.292424 44.918555,58.861304 z "
     id="path2775" />
  <path
     style="fill:#ffffff;fill-opacity:1"
     d="M 48.99839,58.855524 C 48.99839,58.286184 48.570007,57.737854 48.046429,57.637024 C 47.08907,57.452654 46.668241,59.101824 47.468452,59.902034 C 48.111121,60.544704 48.99839,59.937794 48.99839,58.855524 z "
     id="path2773" />
  <path
     style="fill:#ffffff;fill-opacity:1"
     d="M 23.049688,58.301824 C 23.268621,56.769514 21.653945,55.368624 20.95039,56.480484 C 20.678586,56.910034 20.452453,57.829274 20.447871,58.523254 C 20.441275,59.522454 20.694255,59.748864 21.663492,59.611214 C 22.416734,59.504234 22.949839,59.000674 23.049688,58.301824 z "
     id="path2771" />
  <path
     style="fill:#ffffff;fill-opacity:1"
     d="M 33.405077,58.150694 C 33.505204,57.443014 33.321612,56.598494 32.997093,56.273964 C 32.573033,55.849914 32.404716,55.982324 32.398729,56.744694 C 32.391787,57.628754 32.302559,57.669524 31.863081,56.989484 C 30.981026,55.624604 31.25101,53.500524 32.660402,50.716624 C 33.398116,49.259444 33.948894,48.024104 33.884352,47.971404 C 33.819811,47.918704 32.757038,47.366454 31.522636,46.744164 C 29.125094,45.535524 26.967278,42.544824 26.967278,40.430504 C 26.967278,39.622294 26.573924,39.062234 25.878571,38.880394 C 25.279783,38.723804 24.906797,38.784894 25.049714,39.016134 C 25.426187,39.625284 22.086721,45.594244 21.173359,45.944734 C 20.74897,46.107584 19.682627,47.286024 18.803707,48.563494 L 17.20567,50.886164 L 18.9586,51.602884 C 19.922712,51.997084 21.935481,53.463864 23.431421,54.862394 C 28.408528,59.515424 32.997899,61.028534 33.405077,58.150694 z "
     id="path2769" />
  <path
     style="fill:#ffffff;fill-opacity:1"
     d="M 37.302862,58.925514 C 37.302862,58.494394 37.083722,58.006214 36.815884,57.840684 C 36.255905,57.494594 35.580699,58.893844 36.07106,59.384204 C 36.654761,59.967904 37.302862,59.726574 37.302862,58.925514 z "
     id="path2767" />
  <path
     style="fill:#ffffff;fill-opacity:1"
     d="M 41.654686,58.109544 C 41.654686,56.913224 40.835265,56.215334 40.021281,56.718404 C 39.658556,56.942584 39.664967,57.408914 40.04042,58.110454 C 40.766971,59.468024 41.654686,59.467524 41.654686,58.109544 z "
     id="path2765" />
  <path
     style="fill:#ffffff;fill-opacity:1"
     d="M 16.48039,58.011154 C 17.228089,57.263454 16.782151,55.901524 15.789632,55.901524 C 14.833964,55.901524 14.283552,56.843984 14.662495,57.831504 C 15.025674,58.777934 15.651744,58.839794 16.48039,58.011154 z "
     id="path2763" />
  <path
     style="fill:#ffffff;fill-opacity:1"
     d="M 46.550489,57.319674 C 46.550489,56.902904 46.183304,56.421004 45.734522,56.248784 C 44.916623,55.934934 44.582356,57.015934 45.281207,57.714784 C 45.891123,58.324704 46.550489,58.119454 46.550489,57.319674 z "
     id="path2761" />
  <path
     style="fill:#ffffff;fill-opacity:1"
     d="M 20.439541,55.921244 C 20.439541,55.420884 18.925968,53.725614 18.479233,53.725614 C 17.857925,53.725614 17.344314,56.227334 17.839419,56.842064 C 18.419625,57.562444 20.439541,56.847104 20.439541,55.921244 z "
     id="path2759" />
  <path
     style="fill:#ffffff;fill-opacity:1"
     d="M 37.302862,56.141414 C 37.302862,55.674974 37.054079,55.447104 36.75001,55.635024 C 36.445942,55.822944 36.337994,56.204574 36.510125,56.483094 C 36.976445,57.237614 37.302862,57.096924 37.302862,56.141414 z "
     id="path2757" />
  <path
     style="fill:#ffffff;fill-opacity:1"
     d="M 43.830599,55.901524 C 43.830599,55.602344 43.571361,55.357554 43.254516,55.357554 C 42.937672,55.357554 42.829723,55.602344 43.014631,55.901524 C 43.19954,56.200714 43.458776,56.445504 43.590713,56.445504 C 43.72265,56.445504 43.830599,56.200714 43.830599,55.901524 z "
     id="path2755" />
  <path
     style="fill:#ffffff;fill-opacity:1"
     d="M 13.911805,54.813574 C 13.911805,54.215194 13.667014,53.725614 13.367827,53.725614 C 13.068639,53.725614 12.823848,53.827994 12.823848,53.953114 C 12.823848,54.078244 12.675264,54.567824 12.49366,55.041074 C 12.276987,55.605714 12.464002,55.901524 13.037638,55.901524 C 13.549152,55.901524 13.911805,55.450184 13.911805,54.813574 z "
     id="path2753" />
  <path
     style="fill:#ffffff;fill-opacity:1"
     d="M 22.063349,54.244584 C 19.996239,52.656484 17.2402,51.454834 14.965049,51.149674 C 13.583293,50.964334 12.996848,50.643874 13.177573,50.172914 C 13.325507,49.787404 13.061648,48.727684 12.591218,47.817974 C 11.613389,45.927054 11.36247,43.611774 12.2882,45.021964 C 12.764332,45.747274 12.883365,45.747274 13.359497,45.021964 C 14.153193,43.812904 14.024088,42.311014 13.095838,41.954814 C 11.981662,41.527264 12.058501,40.959054 13.678166,37.648574 C 15.34902,34.233474 15.331971,31.264574 13.639816,30.970124 C 12.333813,30.742864 10.676838,28.801364 10.660032,27.478674 C 10.642139,26.070459 9.9199118,26.316614 8.5220138,28.207374 C 7.3816568,29.749784 7.3314128,30.096564 7.9111868,32.423204 C 8.2586418,33.817544 8.9105338,35.525534 9.3598348,36.218724 C 9.8880898,37.033734 9.9967208,37.706494 9.6672668,38.122654 C 8.7219738,39.316734 7.7072638,43.101134 7.6350348,45.701944 C 7.5693438,48.067324 7.6707028,48.285834 8.8336168,48.285834 C 10.070768,48.285834 12.27987,49.984764 12.27987,50.936204 C 12.27987,51.197154 13.29787,51.573434 14.542092,51.772394 C 16.802445,52.133844 19.010925,53.148424 21.474548,54.957184 C 23.226003,56.243084 23.784633,55.566994 22.063349,54.244584 z "
     id="path2751" />
  <path
     style="fill:#ffffff;fill-opacity:1"
     d="M 16.992987,54.505014 C 17.446371,53.323514 16.295371,52.212414 15.471508,53.036274 C 14.775198,53.732594 15.206563,55.357554 16.087717,55.357554 C 16.405685,55.357554 16.813057,54.973914 16.992987,54.505014 z "
     id="path2749" />
  <path
     style="fill:#ffffff;fill-opacity:1"
     d="M 33.30784,54.015384 C 32.962005,53.277194 32.594708,52.918244 32.491625,53.217714 C 32.388543,53.517174 32.602109,54.121144 32.966216,54.559874 C 33.921179,55.710534 34.024702,55.545534 33.30784,54.015384 z "
     id="path2747" />
  <path
     style="fill:#ffffff;fill-opacity:1"
     d="M 18.264866,48.197804 C 19.166862,46.952634 20.392349,45.592404 20.988168,45.175074 C 21.583987,44.757744 22.071476,44.142554 22.071476,43.807984 C 22.071476,43.180074 21.315584,43.773184 18.666189,46.479964 C 14.777419,50.452964 14.770933,50.461744 15.726146,50.461744 C 16.220445,50.461744 17.362868,49.442974 18.264866,48.197804 z "
     id="path2745" />
  <path
     style="fill:#ffffff;fill-opacity:1"
     d="M 17.445565,46.657954 C 17.888938,45.800574 18.749009,44.941224 19.356835,44.748314 C 19.964661,44.555394 21.0504,43.236354 21.769589,41.817104 C 22.488776,40.397854 24.19726,38.318844 25.566219,37.197084 C 26.935178,36.075324 28.055234,34.787944 28.055234,34.336234 C 28.055234,33.825784 27.516017,34.155774 26.630493,35.208164 C 25.846885,36.139424 24.561737,37.239004 23.774608,37.651664 C 22.41994,38.361874 19.534854,41.997764 17.122194,46.035274 C 16.520987,47.041384 15.906695,47.742164 15.757101,47.592564 C 15.607507,47.442974 15.986968,46.497404 16.600348,45.491304 C 17.899858,43.359764 18.047945,42.440384 16.944222,43.356394 C 15.706875,44.383294 13.847402,48.426944 14.77647,48.070434 C 15.198468,47.908494 15.543739,48.027554 15.543739,48.335014 C 15.543739,49.246404 16.579202,48.333314 17.445565,46.657954 z "
     id="path2743" />
  <path
     style="fill:#ffffff;fill-opacity:1"
     d="M 40.56673,45.702394 C 40.56673,44.503664 40.924479,43.517974 41.518692,43.079514 C 42.401484,42.428094 42.374754,42.341244 41.150821,41.884104 C 39.843806,41.395944 39.842485,41.388154 41.014826,41.081574 C 42.375997,40.725624 42.693258,38.494234 41.382697,38.494234 C 39.649501,38.494234 40.676032,37.672864 42.528979,37.577044 C 43.605533,37.521374 44.602885,37.359294 44.745317,37.216864 C 44.973676,36.988504 43.759348,32.239424 42.815181,29.668364 C 42.329537,28.345894 41.143883,29.242484 40.994702,31.045004 C 40.927995,31.851014 40.863993,32.510474 40.852476,32.510474 C 40.84096,32.510474 39.976387,32.262864 38.931205,31.960234 C 36.133563,31.150174 30.542528,33.165344 29.657137,35.302864 C 29.310089,36.140714 28.685292,37.109104 28.268699,37.454844 C 26.671563,38.780354 27.699683,43.003014 30.162132,45.231494 C 31.73859,46.658174 36.461528,48.102084 38.697708,47.841024 C 40.432938,47.638444 40.56673,47.485354 40.56673,45.702394 z "
     id="path2741" />
  <path
     style="fill:#ffffff;fill-opacity:1"
     d="M 6.8400898,46.653904 C 6.8400898,46.354714 6.3505088,46.109924 5.7521338,46.109924 C 5.1537578,46.109924 4.6641768,46.354714 4.6641768,46.653904 C 4.6641768,46.953094 5.1537578,47.197884 5.7521338,47.197884 C 6.3505088,47.197884 6.8400898,46.953094 6.8400898,46.653904 z "
     id="path2739" />
  <path
     style="fill:#ffffff;fill-opacity:1"
     d="M 14.999761,45.021964 C 16.374312,42.327624 15.529242,42.130784 13.965537,44.781074 C 12.66988,46.977044 12.614255,47.197884 13.356771,47.197884 C 13.649878,47.197884 14.389224,46.218714 14.999761,45.021964 z "
     id="path2737" />
  <path
     style="fill:#ffffff;fill-opacity:1"
     d="M 5.7521338,38.674024 L 5.7521338,32.326084 L 4.4665271,34.865484 C 3.2845923,37.200104 3.2376714,37.591374 3.8846735,39.717484 C 4.2717373,40.989414 4.7325288,42.703264 4.9086548,43.526024 C 5.5158068,46.362324 5.7521338,45.002884 5.7521338,38.674024 z "
     id="path2735" />
  <path
     style="fill:#ffffff;fill-opacity:1"
     d="M 8.2570668,35.392214 C 7.7769168,34.385334 7.3840678,33.188194 7.3840678,32.731904 C 7.3840678,32.275614 7.1392778,32.053574 6.8400898,32.238484 C 6.5268578,32.432074 6.3087168,35.156954 6.3258288,38.662324 L 6.3555458,44.749974 L 7.7428058,40.986444 C 9.0649268,37.399624 9.0890748,37.136954 8.2570668,35.392214 z "
     id="path2733" />
  <path
     style="fill:#ffffff;fill-opacity:1"
     d="M 18.824265,41.749184 C 19.88195,41.183124 22.097455,35.063884 22.042222,32.861154 C 22.026132,32.219494 21.578503,33.040854 21.04749,34.686384 C 19.772403,38.637704 18.501446,41.006464 17.437374,41.414784 C 16.960803,41.597664 15.727799,41.395024 14.697365,40.964484 C 13.641507,40.523324 12.823848,40.414624 12.823848,40.715434 C 12.823848,41.992094 17.019702,42.714954 18.824265,41.749184 z "
     id="path2731" />
  <path
     style="fill:#ffffff;fill-opacity:1"
     d="M 18.947463,38.086244 C 19.717859,36.665104 20.514748,34.603724 20.718329,33.505404 L 21.088475,31.508464 L 18.488696,32.171674 C 17.058817,32.536444 15.794994,33.116654 15.6802,33.461034 C 15.528797,33.915244 15.956985,33.947944 17.239511,33.580124 C 18.211927,33.301234 19.109253,33.174774 19.23357,33.299084 C 19.357886,33.423404 19.290566,34.525624 19.083968,35.748464 C 18.590147,38.671364 17.460832,39.775214 15.388364,39.360724 C 14.00301,39.083644 13.873312,39.152344 14.45606,39.854514 C 15.804761,41.479594 17.461537,40.827324 18.947463,38.086244 z "
     id="path2729" />
  <path
     style="fill:#ffffff;fill-opacity:1"
     d="M 17.991615,36.703734 C 18.993875,34.198834 18.887841,33.965014 16.968164,34.446824 C 15.966498,34.698224 15.409672,35.310914 15.090199,36.513214 C 14.257068,39.648594 16.747871,39.812154 17.991615,36.703734 z "
     id="path2727" />
  <path
     style="fill:#ffffff;fill-opacity:1"
     d="M 27.783245,36.862294 C 28.324768,36.263924 28.645437,35.774344 28.495843,35.774344 C 28.346249,35.774344 27.78079,36.263924 27.239267,36.862294 C 26.697745,37.460674 26.377076,37.950254 26.52667,37.950254 C 26.676264,37.950254 27.241723,37.460674 27.783245,36.862294 z "
     id="path2725" />
  <path
     style="fill:#ffffff;fill-opacity:1"
     d="M 24.59672,36.024214 C 26.783839,34.356024 27.82934,32.610964 27.086641,31.868264 C 26.748753,31.530374 26.440856,31.822494 26.223944,32.686734 C 26.03826,33.426564 25.029214,34.536514 23.979064,35.156124 C 22.92989,35.775154 22.071476,36.534674 22.071476,36.843954 C 22.071476,37.707994 22.624572,37.528444 24.59672,36.024214 z "
     id="path2723" />
  <path
     style="fill:#ffffff;fill-opacity:1"
     d="M 24.791366,33.598424 C 25.389742,33.000054 25.871878,32.204484 25.86278,31.830494 C 25.853384,31.444254 25.611464,31.553284 25.302737,32.082894 C 25.003811,32.595694 24.222417,33.391264 23.566306,33.850824 C 22.910195,34.310384 22.672634,34.686384 23.038393,34.686384 C 23.404152,34.686384 24.19299,34.196804 24.791366,33.598424 z "
     id="path2721" />
  <path
     style="fill:#ffffff;fill-opacity:1"
     d="M 24.791366,31.017314 C 24.791366,30.353684 24.639026,30.327774 23.975399,30.878534 C 23.526617,31.250994 23.159432,31.922914 23.159432,32.371694 C 23.159432,33.035324 23.311772,33.061234 23.975399,32.510474 C 24.424181,32.138014 24.791366,31.466094 24.791366,31.017314 z "
     id="path2719" />
  <path
     style="fill:#ffffff;fill-opacity:1"
     d="M 33.913215,31.773324 C 37.692548,30.451014 47.156002,25.699738 49.894902,23.74947 C 51.307998,22.743256 51.371052,22.565916 50.592528,21.787392 C 49.814004,21.008868 49.654116,21.017561 48.82354,21.883569 C 47.963428,22.780375 47.981468,22.814328 49.134385,22.468602 C 50.885153,21.943596 50.646014,22.452338 48.526199,23.762456 C 46.18328,25.210459 45.326156,25.205716 47.094467,23.754534 C 48.848753,22.31486 48.312037,22.51329 42.882863,25.311613 C 38.975268,27.325678 30.709619,30.878534 29.931533,30.878534 C 29.782322,30.878534 29.415338,30.234394 29.116014,29.447114 C 28.613849,28.126324 28.822536,27.788772 31.816095,25.079757 C 35.381117,21.853597 37.35715,17.863859 37.23888,14.130805 C 37.176041,12.147398 37.16729,12.156315 36.749382,14.629572 C 35.90881,19.604237 33.013331,24.134697 28.989489,26.77122 C 27.745459,27.58634 27.677776,27.825435 28.204882,29.542904 C 28.599822,30.829734 29.109709,31.422514 29.821654,31.422514 C 31.128979,31.422514 36.968018,29.122784 41.84643,26.686513 C 43.896611,25.662654 45.696863,24.947782 45.846989,25.097909 C 46.270471,25.521391 36.916053,30.039174 32.827923,31.385554 C 30.815489,32.048334 28.880543,32.412354 28.528044,32.194494 C 28.12636,31.946244 28.032013,32.032814 28.275278,32.426424 C 28.832121,33.327414 29.787843,33.216704 33.913215,31.773324 z "
     id="path2717" />
  <path
     style="fill:#ffffff;fill-opacity:1"
     d="M 5.7903668,28.824654 C 5.8113958,28.009564 6.0389808,26.8531 6.2961118,26.254724 C 6.7636218,25.166768 6.7636218,25.166768 6.8199538,26.254724 C 6.8732098,27.283289 6.9346868,27.272576 7.9461428,26.058465 C 9.1508448,24.61239 9.4387338,22.400689 8.3360288,23.063172 C 7.7936448,23.389027 7.7926898,23.302842 8.3313098,22.637242 C 8.7026988,22.178297 8.8454928,21.641728 8.6486298,21.444865 C 8.4517668,21.248002 8.5497488,21.086932 8.8663668,21.086932 C 9.7840788,21.086932 10.280904,18.270462 9.4555308,17.746999 C 8.8696528,17.375428 8.8697518,17.294275 9.4560888,17.287416 C 9.8477308,17.282834 10.016878,17.034295 9.8319688,16.735108 C 9.6470608,16.43592 9.8508668,16.191129 10.284872,16.191129 C 11.126995,16.191129 11.983993,13.768784 11.448442,12.902244 C 11.272037,12.616815 11.501656,12.383283 11.958705,12.383283 C 12.415754,12.383283 12.674895,12.077295 12.534573,11.70331 C 12.394253,11.329325 12.891516,10.740381 13.639602,10.394545 C 15.278638,9.6368303 15.335351,9.8811233 13.933997,11.662656 C 12.438379,13.564027 10.635881,18.617964 10.711038,20.699355 C 10.752416,21.845259 10.864478,22.072327 11.036545,21.358921 C 12.625226,14.772075 15.196793,10.25967 18.485329,8.2883183 C 19.70974,7.5543303 20.439702,6.9514793 20.107468,6.9486483 C 19.775234,6.9458183 18.59565,7.5595223 17.48617,8.3124363 C 15.561631,9.6184633 14.455783,9.6910073 14.455783,8.5112293 C 14.455783,8.2120413 14.700573,8.1185393 14.999761,8.3034473 C 15.298949,8.4883563 15.543739,8.3880903 15.543739,8.0806353 C 15.543739,7.7731803 15.881452,7.6512183 16.294213,7.8096093 C 16.706974,7.9680013 17.531242,7.4790393 18.125921,6.7230283 C 18.720599,5.9670173 19.362046,5.5033553 19.551359,5.6926673 C 19.740671,5.8819803 19.899312,5.6900863 19.903893,5.2662373 C 19.909716,4.7275333 20.032921,4.6852883 20.313263,5.1258713 C 20.822616,5.9263653 23.70341,5.4139443 23.70341,4.5228493 C 23.70341,4.1588103 24.070595,3.8609603 24.519377,3.8609603 C 24.968159,3.8609603 25.335344,4.0649513 25.335344,4.3142753 C 25.335344,4.5635983 25.947319,4.7675903 26.695289,4.7675903 C 27.613258,4.7675903 28.06766,4.4582063 28.093468,3.8156283 C 28.126806,2.9855573 28.184443,2.9983473 28.543609,3.9155163 C 28.827499,4.6404613 29.079471,4.7668013 29.354355,4.3220283 C 29.634682,3.8684493 30.054954,3.8381883 30.768731,4.2201903 C 31.327276,4.5191143 32.1545,4.6216173 32.607007,4.4479733 C 33.649331,4.0479963 35.251453,1.6448773 34.702129,1.3053763 C 33.517644,0.57332426 26.331354,0.35772026 23.39991,0.96628526 C 12.51005,3.2270113 6.4479198,10.440022 4.1751349,23.840837 C 3.5947702,27.26279 2.9421194,30.515694 2.7248002,31.069504 C 2.3480072,32.029724 2.4090709,32.035384 4.040904,31.191534 C 5.3016148,30.539594 5.7621988,29.916464 5.7903668,28.824654 z "
     id="path2715" />
  <path
     style="fill:#ffffff;fill-opacity:1"
     d="M 20.861406,31.139494 C 21.841401,31.074884 23.084627,30.622564 23.624129,30.134314 C 24.97241,28.914144 26.123263,29.022244 27.2035,30.470554 C 27.914054,31.423214 28.04882,31.472304 27.811508,30.692004 C 26.816924,27.421765 26.853064,27.226062 28.693064,25.918293 C 32.695493,23.073588 35.439064,18.459429 35.958566,13.699115 L 36.250578,11.023338 L 34.724414,15.113407 C 32.992537,19.75478 31.205951,22.333009 27.771336,25.147417 C 25.085413,27.348329 19.644487,30.194384 17.180867,30.687104 C 16.280447,30.867194 15.543739,31.248174 15.543739,31.533734 C 15.543739,31.838494 16.273952,31.888554 17.311668,31.654944 C 18.284028,31.436044 19.881411,31.204094 20.861406,31.139494 z "
     id="path2713" />
  <path
     style="fill:#ffffff;fill-opacity:1"
     d="M 16.288745,29.654584 C 16.531166,28.666824 18.042911,24.239684 18.517782,23.12685 C 19.137999,21.673407 18.000667,21.993319 17.194872,23.498961 C 16.508292,24.781846 13.621894,26.418128 13.051551,25.847785 C 12.896786,25.69302 14.01827,24.285007 15.543739,22.718866 C 17.069207,21.152726 18.24404,19.81747 18.154479,19.75163 C 17.210142,19.057414 13.114944,17.869311 12.816957,18.203102 C 12.602915,18.442863 12.149718,19.787787 11.809852,21.191822 C 10.434118,26.875182 11.453401,30.334564 14.503701,30.334564 C 15.39369,30.334564 16.196959,30.028574 16.288745,29.654584 z "
     id="path2711" />
  <path
     style="fill:#ffffff;fill-opacity:1"
     d="M 31.863081,29.246604 C 32.407059,28.895054 32.45239,28.716504 31.999075,28.710954 C 31.625091,28.706374 31.319103,28.335444 31.319103,27.886658 C 31.319103,26.919556 30.687606,26.831823 29.838473,27.680955 C 29.127402,28.392024 29.519066,29.794394 30.425341,29.782254 C 30.767316,29.777674 31.414299,29.536624 31.863081,29.246604 z "
     id="path2709" />
  <path
     style="fill:#ffffff;fill-opacity:1"
     d="M 26.592683,24.957083 C 36.275875,17.593298 37.988637,5.9414533 29.304908,6.5059403 L 26.757826,6.6715133 L 28.222497,8.2468863 C 29.96907,10.125466 30.063213,10.751349 28.599213,10.751349 C 28.000837,10.751349 27.511256,11.077736 27.511256,11.476653 C 27.511256,12.751565 28.208969,12.956753 29.272215,11.994528 C 30.206287,11.149205 30.445557,11.137681 31.764261,11.874506 C 32.679832,12.386081 33.28712,13.240236 33.395153,14.16837 C 33.602324,15.948223 32.832019,16.087317 31.754581,14.46461 C 30.980168,13.298281 30.941435,13.318791 28.929459,15.96055 C 27.807491,17.433714 26.067028,19.064652 25.061764,19.584857 C 23.918014,20.176725 22.67877,21.550846 21.750323,23.256709 C 20.934294,24.756023 20.084695,25.982735 19.862324,25.982735 C 19.639954,25.982735 19.209606,26.69532 18.905995,27.566258 L 18.353976,29.149784 L 20.822901,28.308534 C 22.18081,27.845849 24.777212,26.337695 26.592683,24.957083 z "
     id="path2707" />
  <path
     style="fill:#ffffff;fill-opacity:1"
     d="M 41.41768,25.180569 C 45.242782,23.243439 48.635651,21.394296 48.957389,21.071363 C 49.847107,20.178343 47.187675,18.393587 44.945754,18.379138 C 43.486079,18.36973 43.21409,18.512103 43.721803,19.019815 C 44.563292,19.861305 44.563292,22.312559 43.721803,23.154049 C 42.779057,24.096794 40.00117,23.955911 38.841635,22.906545 C 37.528201,21.717904 37.549732,18.80454 38.880853,17.599892 C 39.767606,16.797392 40.240256,16.751741 42.199631,17.279346 C 43.456252,17.617719 44.588745,17.790222 44.716282,17.662685 C 44.951917,17.427049 42.557435,15.531169 39.942765,13.883157 L 38.502834,12.975576 L 38.137485,14.991336 C 37.628823,17.79781 35.595463,22.098456 33.739405,24.293469 C 31.972134,26.383482 31.206367,28.836884 32.711075,27.588089 C 33.185976,27.193956 34.058868,25.922106 34.650835,24.761755 C 35.552101,22.995128 35.96585,22.679577 37.194973,22.82144 C 38.936745,23.022473 39.464501,24.865927 38.10362,25.995357 C 37.359383,26.613019 37.141962,26.605508 36.725754,25.947756 C 36.45395,25.518212 36.256212,24.799582 36.286337,24.350801 C 36.323255,23.800828 36.424097,23.854973 36.595681,24.516898 C 36.735695,25.057034 37.135681,25.40382 37.484541,25.287534 C 38.435169,24.970658 38.248303,23.574667 37.228982,23.378364 C 36.645378,23.265972 35.849729,24.082638 34.917075,25.751337 C 34.134942,27.150725 33.495015,28.387244 33.495015,28.499154 C 33.495015,29.058274 35.031647,28.414624 41.41768,25.180569 z "
     id="path2705" />
  <path
     style="fill:#ffffff;fill-opacity:1"
     d="M 21.634642,21.793436 C 22.413918,20.137801 23.194959,19.348117 24.469102,18.927612 C 25.558332,18.568134 26.886927,17.412165 27.959074,15.891098 C 28.911231,14.540263 30.218432,13.239654 30.863966,13.000855 C 31.854527,12.634422 31.899047,12.513484 31.149292,12.225775 C 30.586685,12.009883 29.965087,12.307235 29.454176,13.036663 C 28.808513,13.958476 28.491434,14.058983 27.86614,13.540035 C 26.532535,12.433241 26.355243,10.667292 27.546458,10.355782 C 28.918095,9.9970913 28.889302,9.2848003 27.485152,8.8391403 C 25.993133,8.3655913 25.099754,9.2088713 24.313592,11.832845 C 23.443257,14.737765 22.71272,14.592413 22.509264,11.473844 C 22.418075,10.076088 22.066533,8.8414243 21.72806,8.7301443 C 21.389587,8.6188653 20.328419,9.5179953 19.36991,10.728212 C 18.411401,11.938429 17.992125,12.788558 18.438186,12.617388 C 19.322747,12.27795 23.141802,14.50228 23.152698,15.363258 C 23.156402,15.655899 22.17488,16.795301 20.971539,17.895264 C 18.980869,19.714915 18.83959,20.017978 19.404259,21.257292 C 19.899611,22.344471 19.846998,22.975949 19.143583,24.385977 L 18.262294,26.152563 L 19.410627,25.115687 C 20.042211,24.545405 21.043018,23.050393 21.634642,21.793436 z "
     id="path2703" />
  <path
     style="fill:#ffffff;fill-opacity:1"
     d="M 10.601373,23.262844 C 10.581655,22.72482 10.412221,22.817468 10.103958,23.534833 C 9.4613448,25.030275 9.4613448,25.889152 10.103958,24.894779 C 10.393983,24.445997 10.61782,23.711626 10.601373,23.262844 z "
     id="path2701" />
  <path
     style="fill:#ffffff;fill-opacity:1"
     d="M 16.105651,23.534833 C 16.843834,22.528471 16.83229,22.502868 15.951722,23.193457 C 15.428143,23.604076 14.999761,24.195652 14.999761,24.508071 C 14.999761,24.820489 15.069028,24.974109 15.153689,24.849447 C 15.23835,24.724785 15.666732,24.133209 16.105651,23.534833 z "
     id="path2699" />
  <path
     style="fill:#ffffff;fill-opacity:1"
     d="M 43.264933,22.473009 C 44.227957,21.312636 43.728,19.75274 42.329102,19.553158 C 41.231813,19.396608 40.838714,19.908283 41.04629,21.222927 C 41.08172,21.447318 40.865918,21.63091 40.56673,21.63091 C 39.521674,21.63091 40.004221,19.35799 41.110708,19.068637 C 42.497609,18.705954 42.529145,17.823064 41.155198,17.823064 C 39.188055,17.823064 38.390818,18.458478 38.390818,20.02633 C 38.390818,22.562958 41.778831,24.263653 43.264933,22.473009 z "
     id="path2697" />
  <path
     style="fill:#ffffff;fill-opacity:1"
     d="M 21.635928,16.327124 C 22.001282,15.890331 22.010146,15.647151 21.660712,15.647151 C 21.361524,15.647151 20.811997,16.014337 20.439541,16.463118 C 20.067086,16.9119 19.504861,17.279086 19.190155,17.279086 C 18.875448,17.279086 19.211409,16.624249 19.936735,15.823894 C 21.023985,14.624175 20.849631,14.687909 18.943602,16.186926 C 17.672053,17.186948 16.631695,18.135533 16.631695,18.294891 C 16.631695,18.454249 16.925443,18.290885 17.284469,17.931859 C 18.282062,16.934266 19.041699,17.155141 18.194242,18.196388 C 17.570401,18.962884 17.745188,18.940526 19.257414,18.060393 C 20.252777,17.48108 21.323109,16.701109 21.635928,16.327124 z "
     id="path2695" />
  <path
     style="fill:#ffffff;fill-opacity:1"
     d="M 17.454224,11.830366 C 19.724315,8.7378833 19.855849,8.0998183 17.907293,9.6325533 C 16.082574,11.067877 13.911805,13.985927 13.911805,15.003475 C 13.911805,16.108989 15.084553,15.058503 17.454224,11.830366 z "
     id="path2693" />
  <path
     style="fill:#ffffff;fill-opacity:1"
     d="M 19.351585,13.066036 C 19.351585,12.916442 18.9844,13.098783 18.535618,13.471239 C 18.086836,13.843695 17.719651,14.270826 17.719651,14.42042 C 17.719651,14.570014 18.086836,14.387673 18.535618,14.015217 C 18.9844,13.642761 19.351585,13.21563 19.351585,13.066036 z "
     id="path2691" />
  <path
     style="fill:#ffffff;fill-opacity:1"
     d="M 25.494566,8.3186373 C 26.81717,7.3515263 26.647329,6.9422553 24.927361,6.9518323 C 23.078582,6.9621263 21.691302,7.7322903 22.557377,8.2675543 C 22.888507,8.4722043 23.178055,9.5431603 23.200817,10.647458 L 23.242201,12.655272 L 23.904016,10.826508 C 24.268015,9.8206883 24.983762,8.6921463 25.494566,8.3186373 z "
     id="path2689" />
  <path
     style="fill:#ffffff;fill-opacity:1"
     d="M 24.746035,6.0493983 C 25.28553,5.5879873 22.264934,5.9236853 21.527498,6.4070943 C 20.953424,6.7834143 21.275949,6.8384123 22.615454,6.5926163 C 23.662612,6.4004653 24.621373,6.1560163 24.746035,6.0493983 z "
     id="path2687" />
  <path
     style="fill:#ffffff;fill-opacity:1"
     d="M 30.626997,5.4585523 C 29.498369,5.3407943 27.784838,5.3427683 26.819151,5.4629403 C 25.853463,5.5831113 26.776886,5.6794583 28.871202,5.6770453 C 30.965517,5.6746323 31.755625,5.5763103 30.626997,5.4585523 z "
     id="path2683" />
</svg>
